<svg width="1392" height="214" viewBox="0 0 1392 214" fill="none" xmlns="http://www.w3.org/2000/svg">
<path d="M1015.55 153.309C1024.66 153.309 1031.94 156.371 1037.4 162.529C1042.4 168.158 1044.92 175.161 1044.92 183.521C1044.92 192.394 1042.24 199.645 1036.89 205.29C1031.54 210.918 1024.54 213.749 1015.9 213.749C1007.26 213.749 999.742 210.736 994.378 204.693C989.362 199.115 986.862 192.178 986.862 183.868C986.862 174.084 989.941 166.37 996.083 160.741C1001.5 155.791 1007.97 153.309 1015.55 153.309ZM333.143 0C337.182 1.21303e-05 341.039 0.579516 344.697 1.73828C348.356 2.89705 351.518 4.48633 354.232 6.50586C356.931 8.52551 359.084 10.9259 360.723 13.7236C362.361 16.5212 363.172 19.4513 363.172 22.5303C363.172 29.0692 361.732 34.1351 358.835 37.6943C355.954 41.2536 351.915 43.9024 346.717 45.6406C341.519 47.3788 335.261 48.3885 327.961 48.6699C320.644 48.9513 312.565 49.1006 303.709 49.1006C294.091 49.1006 286.873 50.2596 282.056 52.5605C277.238 54.8616 274.838 57.9572 274.838 61.7979C274.838 65.2577 275.897 67.9566 278.016 69.877C280.135 71.7972 282.784 73.2036 285.962 74.0645C289.14 74.9253 292.601 75.4221 296.358 75.5049C300.116 75.6042 303.626 75.6543 306.887 75.6543C312.664 75.6543 318.525 75.8026 324.501 76.084C330.46 76.3654 335.807 77.3426 340.525 78.9648C345.243 80.6037 349.134 83.1534 352.213 86.6133C355.292 90.0732 356.832 94.8906 356.832 101.049C356.832 107.207 355.292 111.577 352.213 114.756C349.134 117.934 345.293 120.236 340.658 121.692C336.04 123.133 330.941 123.993 325.362 124.291C319.784 124.572 314.486 124.722 309.486 124.722C301.408 124.722 294.769 125.152 289.571 126.013C284.373 126.874 280.334 128.182 277.453 129.903C274.573 131.642 272.553 133.711 271.395 136.111C270.236 138.512 269.656 141.26 269.656 144.339C269.656 149.156 270.616 152.897 272.536 155.596C274.456 158.294 277.685 160.363 282.204 161.804C286.723 163.244 292.683 164.154 300.1 164.552C307.499 164.933 316.605 165.131 327.382 165.131C328.342 165.131 329.302 165.082 330.262 164.982C331.222 164.883 332.563 164.833 334.301 164.833C338.919 164.833 343.589 165.164 348.307 165.843C353.024 166.521 357.295 167.763 361.152 169.601C365.009 171.438 368.122 173.839 370.539 176.818C372.939 179.798 374.147 183.606 374.147 188.225C374.147 194.184 372.36 198.852 368.801 202.229C365.242 205.607 360.954 208.156 355.954 209.878C350.955 211.616 345.658 212.676 340.079 213.057C334.5 213.437 329.683 213.636 325.644 213.636H266.742C256.164 213.636 247.109 213.387 239.609 212.907C232.094 212.427 225.885 210.987 220.985 208.587C216.085 206.187 212.477 202.428 210.159 197.329C207.858 192.23 206.699 185.162 206.699 176.106V32.3311C206.699 23.0936 209.58 15.3956 215.357 9.2373C221.135 3.07919 228.634 5.33476e-05 237.871 0H333.143ZM725.483 0C729.523 1.69613e-05 733.38 0.579516 737.038 1.73828C740.696 2.89705 743.858 4.48632 746.573 6.50586C749.272 8.52551 751.425 10.9259 753.063 13.7236C754.702 16.5212 755.513 19.4513 755.513 22.5303C755.513 29.0692 754.073 34.1351 751.176 37.6943C748.295 41.2536 744.256 43.9024 739.058 45.6406C733.86 47.3788 727.602 48.3885 720.302 48.6699C712.985 48.9513 704.906 49.1006 696.05 49.1006C686.432 49.1006 679.214 50.2596 674.396 52.5605C669.579 54.8616 667.179 57.9572 667.179 61.7979C667.179 65.2577 668.237 67.9566 670.356 69.877C672.475 71.7972 675.124 73.2036 678.303 74.0645C681.481 74.9253 684.941 75.4221 688.699 75.5049C692.457 75.6042 695.966 75.6543 699.228 75.6543C705.005 75.6543 710.866 75.8026 716.842 76.084C722.801 76.3654 728.148 77.3426 732.866 78.9648C737.584 80.6037 741.475 83.1534 744.554 86.6133C747.633 90.0732 749.173 94.8906 749.173 101.049C749.173 107.207 747.633 111.577 744.554 114.756C741.475 117.934 737.634 120.236 732.999 121.692C728.38 123.133 723.282 123.993 717.703 124.291C712.124 124.572 706.827 124.722 701.827 124.722C693.749 124.722 687.11 125.152 681.912 126.013C676.714 126.874 672.674 128.182 669.794 129.903C666.914 131.642 664.894 133.711 663.735 136.111C662.577 138.512 661.997 141.26 661.997 144.339C661.997 149.156 662.957 152.897 664.877 155.596C666.797 158.294 670.026 160.363 674.545 161.804C679.064 163.244 685.024 164.154 692.44 164.552C699.84 164.933 708.946 165.131 719.723 165.131C720.683 165.131 721.643 165.082 722.603 164.982C723.563 164.883 724.904 164.833 726.642 164.833C731.26 164.833 735.929 165.164 740.647 165.843C745.365 166.521 749.636 167.763 753.493 169.601C757.35 171.438 760.463 173.839 762.88 176.818C765.28 179.798 766.488 183.606 766.488 188.225C766.488 194.184 764.701 198.852 761.142 202.229C757.582 205.607 753.294 208.156 748.295 209.878C743.296 211.616 737.999 212.676 732.42 213.057C726.841 213.437 722.024 213.636 717.984 213.636H659.083C648.505 213.636 639.449 213.387 631.95 212.907C624.435 212.427 618.226 210.987 613.326 208.587C608.426 206.187 604.818 202.428 602.5 197.329C600.199 192.23 599.04 185.162 599.04 176.106V32.3311C599.04 23.0936 601.921 15.3956 607.698 9.2373C613.476 3.07919 620.975 4.7734e-05 630.212 0H725.483ZM101.049 0.578125C117.404 0.578142 130.979 2.64758 141.756 6.78613C152.533 10.9247 161.141 16.1724 167.598 22.5127C174.037 28.8696 178.606 35.9883 181.305 43.8848C184.003 51.7812 185.344 59.4793 185.344 66.9785C185.344 72.5573 185.013 77.6067 184.334 82.126C183.655 86.6452 182.464 90.8334 180.726 94.6904C178.027 100.849 175.229 105.765 172.349 109.407C169.468 113.066 166.869 116.294 164.552 119.075C162.251 121.873 160.314 124.654 158.774 127.452C157.235 130.25 156.473 133.941 156.473 138.56C156.473 142.798 157.582 147.317 159.801 152.135C162.019 156.952 164.469 161.753 167.167 166.57C169.865 171.388 172.316 176.056 174.534 180.575C176.752 185.094 177.861 189.2 177.861 192.842H177.828C177.828 200.341 175.71 205.689 171.472 208.867C167.234 212.046 160.876 213.635 152.417 213.635C143.958 213.635 136.773 211.945 130.913 208.585C125.036 205.224 120.086 200.176 116.047 193.422L98.1514 163.971C94.8736 158.591 91.5626 154.435 88.1855 151.555C84.8087 148.675 81.7793 147.234 79.0977 147.234C72.7409 147.234 68.1718 149.403 65.3906 153.724C62.5929 158.044 61.2021 165.329 61.2021 175.526C61.2021 188.223 58.6031 197.659 53.4053 203.817C48.2072 209.976 40.9892 213.055 31.752 213.055C21.9351 213.055 14.187 210.654 8.50879 205.837C2.83081 201.02 0 195.54 0 189.382L0.579102 40.4248C0.579102 32.5283 1.3904 25.9891 3.0293 20.791C4.66819 15.5929 7.11871 11.5042 10.3965 8.52441C13.6577 5.54465 17.763 3.47521 22.6631 2.31641C27.5798 1.15759 33.2911 0.578125 39.8467 0.578125H101.049ZM852.456 153.426C855.883 153.426 859.061 153.774 862.024 154.485C864.988 155.197 867.554 156.34 869.723 157.945C871.891 159.551 873.613 161.637 874.854 164.22C876.096 166.802 876.725 169.931 876.725 173.622C876.725 176.834 876.244 179.565 875.301 181.85C874.357 184.134 873.099 186.055 871.56 187.595C870.02 189.134 868.265 190.392 866.345 191.353C864.408 192.296 862.487 193.024 860.551 193.504C858.631 194.001 856.81 194.299 855.088 194.448C853.383 194.581 851.96 194.646 850.817 194.646C848.583 194.646 846.861 194.994 845.636 195.706C844.411 196.418 843.484 197.263 842.871 198.239C842.242 199.216 841.861 200.226 841.729 201.302C841.596 202.361 841.53 203.238 841.53 203.95C841.53 206.566 840.884 208.751 839.576 210.556C838.268 212.36 836.1 213.237 833.054 213.237C831.365 213.237 829.991 212.972 828.898 212.426C827.806 211.88 826.945 211.118 826.283 210.108C825.638 209.099 825.174 207.874 824.942 206.45C824.694 205.01 824.578 203.421 824.578 201.683V163.872C824.578 160.346 825.373 157.713 826.945 156.008C828.518 154.303 831.15 153.442 834.858 153.442H852.456V153.426ZM907.814 154.121C910.728 154.121 912.764 155.694 913.923 158.822L932.763 208.701C932.994 209.231 933.109 209.745 933.109 210.274C933.109 212.244 931.653 213.237 928.756 213.237H924.534C922.498 213.237 920.644 211.73 918.956 208.701C917.681 206.384 916.34 204.927 914.949 204.348C913.906 203.884 911.225 203.652 906.921 203.652H900.299C897.749 203.652 895.961 203.95 894.984 204.529C893.826 205.175 892.451 206.732 890.879 209.231C889.952 210.738 889.141 211.764 888.445 212.277C887.518 212.923 886.177 213.237 884.439 213.237H880.946C878.513 213.237 877.288 212.227 877.288 210.191C877.288 209.43 877.453 208.602 877.817 207.658L895.779 159.187C897.004 155.81 898.975 154.121 901.706 154.121H907.814ZM1184.01 153.707C1185.68 153.707 1187.15 154.021 1188.41 154.634C1189.69 155.246 1190.32 156.306 1190.32 157.796C1190.32 160.643 1188.03 161.057 1183.45 161.057C1181.28 161.057 1177.54 161.438 1176.26 162.216C1174.99 162.994 1173.38 164.153 1172.74 165.295C1171.16 168.093 1171.58 172.165 1171.58 173.208V205.241C1171.58 208.022 1171.68 210.323 1170.93 211.598C1170.19 212.872 1169.89 212.922 1168.25 213.071C1166.03 213.286 1165.75 212.641 1164.87 211.466C1164.01 210.29 1163.56 208.535 1163.56 206.168V173.953C1163.56 172.414 1163.65 167.117 1162.07 165.113C1161.26 164.087 1159.89 162.68 1158.46 162.034C1157.04 161.389 1153.12 161.057 1150.77 161.057C1149.16 161.057 1147.77 160.709 1146.6 160.03C1145.42 159.352 1144.82 159.286 1144.82 157.796C1144.82 155.081 1146.81 153.707 1150.77 153.707H1184.01ZM1084.76 153.707C1088.32 153.707 1091.52 154.038 1094.35 154.7C1097.18 155.362 1099.58 156.439 1101.55 157.896C1103.52 159.352 1105.03 161.239 1106.09 163.523C1107.13 165.808 1107.66 168.573 1107.66 171.817C1107.66 176.138 1106.78 179.598 1105.04 182.214C1103.29 184.813 1101.04 186.8 1098.27 188.174C1095.51 189.548 1092.46 190.425 1089.12 190.839C1085.77 191.253 1082.56 191.451 1079.43 191.451C1076.12 191.451 1073.59 191.898 1071.8 192.792C1070.01 193.686 1068.72 194.895 1067.9 196.418C1067.07 197.941 1066.59 199.745 1066.47 201.848C1066.34 203.95 1066.29 206.201 1066.29 208.618C1066.29 209.578 1066.01 210.539 1065.43 211.532C1064.85 212.525 1063.74 213.005 1062.1 213.005C1060.2 213.005 1058.96 212.575 1058.38 211.714C1057.8 210.853 1057.52 209.313 1057.52 207.095V158.276C1057.52 155.23 1059.35 153.707 1063.04 153.707H1084.76ZM422.637 3.16406C440.913 3.16406 455.977 3.26321 467.813 3.44531C479.65 3.64397 489.649 4.30603 497.844 5.46484C506.022 6.62366 513.189 8.39558 519.348 10.8125C525.506 13.2295 532.144 16.6395 539.263 21.0596L539.279 21.0762C552.937 29.7342 563.002 41.3392 569.441 55.8574C575.881 70.3922 579.109 87.6586 579.109 107.673C579.109 177.731 539.842 212.761 461.324 212.761H423.795C411.859 212.761 403.4 209.731 398.384 203.672C393.384 197.613 390.885 187.945 390.885 174.652V36.0742C390.885 14.1396 401.464 3.16406 422.637 3.16406ZM1205.18 153.723C1206.04 153.706 1206.85 154.17 1207.71 155.13C1208.58 156.09 1208.71 157.497 1208.71 159.285L1208.62 181.138L1208.63 184.321C1208.64 187.424 1208.67 190.168 1208.71 191.98C1208.77 194.397 1208.86 196.268 1208.97 197.543C1209.09 198.834 1209.29 199.745 1209.55 200.274C1209.82 200.821 1210.13 201.35 1210.5 201.896C1211.04 202.675 1211.59 203.304 1212.15 203.784C1212.71 204.264 1213.58 204.628 1214.72 204.909C1215.86 205.174 1217.42 205.373 1219.44 205.489C1221.44 205.605 1226.17 205.671 1229.6 205.671C1231.34 205.671 1232.73 205.985 1233.77 206.614C1234.81 207.243 1235.34 207.509 1235.34 208.767C1235.34 211.879 1233.42 212.426 1229.6 212.426H1206.03C1204.29 212.426 1202.98 211.978 1202.12 211.084C1201.26 210.19 1200.81 208.601 1200.81 206.333V159.285C1200.81 157.382 1201.28 155.975 1202.2 155.064C1203.13 154.154 1203.44 153.756 1205.18 153.723ZM953.223 153.293C954.746 153.293 955.954 153.757 956.881 154.684C957.808 155.611 958.271 156.835 958.271 158.342V192.345C958.271 196.103 959.133 198.387 960.871 199.215C962.609 200.026 967.178 200.44 974.595 200.44C977.012 200.44 978.717 200.771 979.727 201.45C981.018 202.295 981.663 203.917 981.663 206.334C981.663 210.158 979.693 212.062 975.77 212.062H949.332C945.955 212.061 944.283 210.091 944.283 206.168V158.358C944.283 157.018 944.73 155.826 945.624 154.816C946.518 153.807 947.644 153.31 948.984 153.31H953.189L953.223 153.293ZM1132.34 168.953C1133.2 168.953 1133.85 169.185 1134.3 169.632C1134.74 170.079 1135.09 170.708 1135.34 171.47C1135.59 172.248 1135.72 173.125 1135.79 174.102C1135.84 175.095 1135.87 176.088 1135.87 177.098H1135.89C1135.89 177.743 1136.1 178.489 1136.53 179.333C1136.96 180.194 1137.54 180.989 1138.29 181.733C1138.77 182.164 1139.31 182.512 1139.92 182.776C1140.54 183.041 1141.17 183.24 1141.79 183.372C1142.44 183.504 1143.02 183.587 1143.55 183.62C1144.08 183.653 1144.51 183.653 1144.83 183.653C1146.75 183.653 1148.19 183.984 1149.15 184.646C1150.11 185.309 1150.59 186.103 1150.59 187.014C1150.59 188.239 1149.94 189.1 1148.67 189.613C1147.39 190.126 1145.74 190.375 1143.7 190.375C1142.74 190.375 1141.76 190.507 1140.79 190.771C1139.79 191.036 1138.75 191.716 1137.62 192.775C1137.14 193.255 1136.7 194.116 1136.3 195.374C1135.9 196.632 1135.7 198.271 1135.7 200.291C1135.7 201.516 1135.45 202.592 1134.97 203.535C1134.49 204.479 1133.62 204.942 1132.34 204.942C1131.65 204.942 1131.1 204.76 1130.7 204.38C1130.31 203.999 1129.98 203.519 1129.74 202.906C1129.5 202.294 1129.35 201.598 1129.26 200.82C1129.18 200.042 1129.15 199.281 1129.15 198.536C1129.15 197.791 1129 196.765 1128.7 195.457C1128.4 194.149 1127.54 192.891 1126.1 191.649C1125.31 191.004 1124.26 190.606 1122.99 190.457C1121.71 190.292 1120.62 190.209 1119.71 190.209C1118.27 190.209 1117.03 189.977 1115.99 189.53C1114.94 189.083 1114.43 188.289 1114.43 187.18C1114.43 186.65 1114.53 186.17 1114.71 185.739C1114.89 185.309 1115.23 184.944 1115.71 184.613C1116.19 184.282 1116.88 184.051 1117.79 183.886C1118.7 183.72 1119.88 183.653 1121.32 183.653C1122.23 183.653 1123.27 183.422 1124.48 182.975C1125.67 182.528 1126.65 181.899 1127.39 181.104C1128.19 180.194 1128.68 179.233 1128.87 178.224C1129.05 177.214 1129.15 175.823 1129.15 174.068C1129.15 173.588 1129.2 173.059 1129.26 172.479C1129.35 171.884 1129.5 171.337 1129.74 170.808C1129.98 170.278 1130.32 169.83 1130.74 169.482C1131.15 169.135 1131.7 168.953 1132.34 168.953ZM1015.88 163.026C1010.75 163.026 1006.74 164.731 1003.68 168.142C1000.44 171.85 998.814 176.899 998.814 183.339C998.815 189.48 1000.35 194.496 1003.42 198.37C1006.5 202.244 1010.42 204.181 1015.2 204.181C1020.67 204.181 1024.99 202.31 1028.18 198.585C1031.38 194.86 1032.97 189.844 1032.97 183.521C1032.97 177.594 1031.39 172.711 1028.26 168.837C1025.14 164.963 1021.01 163.026 1015.88 163.026ZM905 172.083C903.196 172.083 901.921 173.656 900.994 176.784L897.684 188.124C897.568 188.538 897.501 188.968 897.501 189.432C897.501 190.773 898.015 191.965 899.024 193.008C900.034 194.05 901.209 194.58 902.55 194.58H907.086C908.659 194.58 909.967 194.067 911.01 193.058C912.053 192.048 912.582 190.805 912.582 189.349C912.582 188.819 912.499 188.306 912.317 187.776H912.334L909.188 177.148C908.195 173.771 906.804 172.083 905 172.083ZM1077.33 158.293C1073.51 158.293 1070.71 159.435 1068.94 161.72C1067.17 164.004 1066.27 167.63 1066.27 172.596C1066.27 174.946 1066.44 176.999 1066.75 178.737C1067.07 180.492 1067.66 181.949 1068.56 183.124C1069.45 184.299 1070.69 185.193 1072.28 185.789C1073.87 186.385 1075.94 186.7 1078.47 186.7H1083.44C1085.54 186.7 1087.51 186.352 1089.35 185.657C1091.19 184.962 1092.78 184.018 1094.12 182.843C1095.46 181.668 1096.52 180.327 1097.31 178.837C1098.11 177.347 1098.5 175.774 1098.5 174.118C1098.5 171.9 1098.21 169.815 1097.59 167.878C1097 165.941 1096.05 164.252 1094.78 162.828C1093.51 161.404 1091.88 160.279 1089.91 159.484C1087.94 158.69 1085.59 158.293 1082.86 158.293H1077.33ZM849.84 166.62C847.224 166.62 845.221 167.2 843.814 168.325C842.407 169.467 841.695 171.007 841.695 172.977C841.695 175.907 842.275 178.059 843.45 179.416C844.626 180.773 846.645 181.452 849.525 181.452C850.717 181.452 851.893 181.27 853.068 180.923C854.244 180.575 855.27 180.095 856.164 179.499C857.058 178.903 857.787 178.174 858.316 177.347C858.846 176.519 859.127 175.592 859.127 174.615C859.127 172.331 858.266 170.427 856.562 168.904C854.856 167.381 852.604 166.62 849.84 166.62ZM478.641 52.8105C472.681 52.8105 467.664 53.39 463.625 54.5488C459.586 55.7076 456.308 57.8772 453.809 61.0391C451.309 64.2175 449.52 68.6374 448.461 74.3154C447.401 79.9935 446.872 87.2608 446.872 96.1172V129.607L446.889 129.624C446.889 140.98 449.388 149.406 454.404 154.886C459.404 160.365 465.562 163.113 472.879 163.113C481.156 163.113 488.374 161.524 494.532 158.346C500.69 155.167 505.79 151.079 509.829 146.079C513.868 141.08 516.897 135.401 518.917 129.044C520.937 122.687 521.946 116.347 521.946 109.99C521.946 99.594 520.456 90.7871 517.477 83.5693C514.497 76.3516 510.838 70.4419 506.501 65.8066C502.164 61.1879 497.496 57.8605 492.496 55.8408C487.497 53.8213 482.878 52.8106 478.641 52.8105ZM1070.76 79.7422C1079.95 79.7423 1087.3 82.8382 1092.81 89.0459C1097.86 94.724 1100.39 101.793 1100.39 110.235V110.252C1100.39 119.208 1097.69 126.525 1092.3 132.22C1086.9 137.914 1079.83 140.745 1071.11 140.745C1062.38 140.745 1054.8 137.699 1049.39 131.607C1044.34 125.979 1041.81 118.976 1041.81 110.583C1041.81 100.7 1044.9 92.9194 1051.11 87.2412C1056.57 82.2418 1063.11 79.7422 1070.76 79.7422ZM894.604 79.5078C896.424 79.5078 897.964 79.723 899.206 80.1699C900.448 80.6169 901.474 81.3783 902.252 82.4707C903.03 83.5633 903.593 85.004 903.924 86.7588C904.255 88.5301 904.438 90.7322 904.438 93.3809V114.289L904.454 114.339C904.454 115.696 904.636 116.955 905 118.13C905.364 119.305 905.878 120.315 906.523 121.176C907.169 122.036 907.947 122.732 908.857 123.245C909.768 123.758 910.794 124.022 911.937 124.022C914.122 124.022 915.959 123.228 917.482 121.639C919.005 120.049 919.75 117.616 919.75 114.339V93.4297C919.75 90.9302 919.899 88.8114 920.181 87.0732C920.462 85.335 920.942 83.911 921.621 82.8184C922.3 81.7259 923.194 80.9312 924.303 80.4346C925.428 79.938 926.819 79.6895 928.475 79.6895C930.13 79.6895 931.636 79.9056 932.812 80.3525C933.987 80.7995 934.931 81.5441 935.659 82.6201C936.388 83.6795 936.9 85.1362 937.215 86.9404C937.529 88.7614 937.679 91.0301 937.679 93.7285V114.951C937.679 118.543 937.232 121.639 936.321 124.271C935.411 126.904 934.218 129.155 932.729 131.025C931.239 132.896 929.584 134.419 927.729 135.595C925.875 136.77 923.988 137.697 922.067 138.359C920.147 139.038 918.294 139.485 916.522 139.717C914.751 139.949 913.211 140.064 911.92 140.064C907.45 140.064 903.311 139.203 899.521 137.498C895.73 135.776 892.684 133.161 890.399 129.618C889.522 128.31 888.827 127.052 888.33 125.827C887.833 124.602 887.452 123.046 887.154 121.143C886.873 119.239 886.691 116.772 886.608 113.726C886.526 110.68 886.492 106.673 886.492 101.674V93.3975C886.492 88.8285 887.055 85.3683 888.214 83.0176C889.356 80.6835 891.492 79.5079 894.604 79.5078ZM959.364 79.9531C964.595 79.9531 968.917 79.9865 972.311 80.0361C975.704 80.1024 978.568 80.2841 980.902 80.6152C983.236 80.9463 985.306 81.46 987.061 82.1387C988.832 82.8339 990.719 83.8103 992.771 85.0684L992.788 85.0518C996.711 87.5349 999.576 90.8624 1001.43 95.0176C1003.28 99.1893 1004.19 104.123 1004.19 109.867C1004.19 129.931 992.937 139.979 970.456 139.979H959.696C956.27 139.979 953.852 139.119 952.412 137.381C950.972 135.643 950.26 132.878 950.26 129.07V89.373C950.26 83.0825 953.289 79.9533 959.364 79.9531ZM1025.65 80.2734C1027.95 80.2736 1029.46 81.3166 1030.12 83.4023C1030.52 84.7599 1030.71 87.6574 1030.71 92.1104V131.146C1030.71 134.307 1030.35 136.493 1029.62 137.734C1028.83 139.191 1027.34 139.936 1025.15 139.936H1021.26C1018.56 139.935 1016.88 138.843 1016.2 136.642C1015.75 135.35 1015.52 132.337 1015.52 127.603L1015.68 87.3916C1015.68 82.6572 1017.26 80.29 1020.42 80.29H1025.65V80.2734ZM1208.2 79.8047C1210.43 79.8047 1212.76 80.0699 1215.15 80.583C1217.55 81.0962 1219.72 81.7582 1221.69 82.5859C1223.66 83.4136 1225.26 84.2908 1226.5 85.2178C1227.75 86.1614 1228.38 87.0228 1228.38 87.8174L1228.44 87.8008C1228.44 88.5289 1228.09 89.1411 1227.4 89.6211C1226.7 90.1176 1226.02 90.3495 1225.35 90.3496C1224.32 90.3496 1223.21 90.102 1222.02 89.5723C1220.83 89.0591 1219.57 88.4796 1218.19 87.8506C1216.84 87.205 1215.31 86.6253 1213.64 86.0791C1211.97 85.5328 1210.1 85.251 1208.05 85.251C1206.22 85.251 1204.54 85.5161 1202.95 86.0293C1201.37 86.5425 1200 87.2545 1198.86 88.165C1197.7 89.0755 1196.81 90.1511 1196.13 91.3926C1195.46 92.6342 1195.13 93.9758 1195.13 95.4326C1195.13 96.6408 1195.38 97.816 1195.86 98.9414C1196.34 100.067 1197.19 101.094 1198.36 102.037C1199.55 102.981 1201.11 103.792 1203.05 104.487C1204.98 105.183 1207.38 105.745 1210.23 106.176C1214.24 106.788 1217.63 107.517 1220.41 108.361C1223.19 109.206 1225.48 110.249 1227.23 111.49C1228.99 112.732 1230.26 114.188 1231.06 115.86C1231.85 117.532 1232.25 119.453 1232.25 121.638C1232.25 127.332 1230.06 131.786 1225.69 135.014C1221.32 138.225 1215.21 139.831 1207.32 139.831C1204.34 139.831 1201.57 139.55 1198.99 138.971C1196.41 138.391 1194.17 137.696 1192.25 136.868C1190.35 136.057 1188.83 135.18 1187.7 134.236C1186.57 133.293 1186.01 132.498 1186.01 131.819C1186.01 130.793 1186.43 130.081 1187.24 129.684C1188.06 129.286 1188.93 129.088 1189.84 129.088C1190.81 129.088 1191.84 129.369 1192.93 129.948C1194.02 130.528 1195.3 131.141 1196.76 131.819C1198.21 132.481 1199.88 133.11 1201.8 133.689C1203.72 134.269 1205.91 134.551 1208.39 134.551C1210.45 134.551 1212.42 134.269 1214.3 133.689C1216.19 133.11 1217.8 132.349 1219.17 131.422C1220.54 130.495 1221.62 129.385 1222.45 128.144C1223.26 126.902 1223.67 125.578 1223.67 124.188C1223.67 120.728 1222.3 118.129 1219.54 116.374C1216.77 114.619 1212.81 113.41 1207.67 112.731C1200.27 111.821 1194.82 110.198 1191.29 107.864C1187.77 105.53 1186.01 102.004 1186.01 97.2695C1186.01 91.9391 1187.97 87.7009 1191.87 84.5391C1195.78 81.3937 1201.23 79.8047 1208.2 79.8047ZM1287.06 79.9219C1287.87 79.9219 1288.55 80.021 1289.11 80.2031C1289.68 80.3853 1290.14 80.7831 1290.52 81.3789C1290.9 81.9749 1291.17 82.852 1291.31 84.0439C1291.46 85.2192 1291.55 86.7918 1291.55 88.7119V116.226C1291.55 118.907 1291.18 121.639 1290.42 124.403C1289.68 127.184 1288.38 129.701 1286.53 131.985C1284.69 134.27 1282.19 136.141 1279.05 137.598C1275.9 139.071 1271.95 139.8 1267.21 139.8C1262.72 139.8 1258.93 139.17 1255.84 137.929C1252.76 136.687 1250.24 134.982 1248.31 132.83C1246.37 130.678 1244.98 128.162 1244.15 125.298C1243.31 122.434 1242.89 119.404 1242.89 116.226V86.0967C1242.89 84.2924 1243.12 82.8357 1243.6 81.7432C1244.08 80.6507 1244.83 80.1036 1245.89 80.1035H1248.32C1250.57 80.1035 1251.7 82.1071 1251.7 86.0967V116.971C1251.7 119.537 1252.08 121.855 1252.83 123.94C1253.57 126.026 1254.61 127.83 1255.95 129.32C1257.3 130.81 1258.92 131.969 1260.82 132.78C1262.72 133.591 1264.86 133.989 1267.23 133.989C1269.59 133.989 1271.66 133.591 1273.58 132.78C1275.52 131.969 1277.16 130.81 1278.5 129.32C1279.84 127.83 1280.88 126.026 1281.63 123.94C1282.37 121.855 1282.76 119.537 1282.76 116.971V86.0967C1282.76 84.0936 1283.02 82.5702 1283.55 81.5107C1284.08 80.4516 1285.26 79.922 1287.06 79.9219ZM1109.26 79.875C1110.01 79.875 1110.74 79.9251 1111.45 80.0244C1112.16 80.1238 1112.84 80.4382 1113.5 81.001C1114.16 81.5638 1114.79 82.4079 1115.41 83.5664C1116.02 84.7087 1116.65 86.3478 1117.26 88.4502L1124.33 113.018C1125.07 115.567 1125.95 117.338 1126.98 118.364C1128 119.39 1129.23 119.903 1130.65 119.903C1131.96 119.903 1133.19 119.291 1134.33 118.083C1135.47 116.875 1136.41 115.054 1137.16 112.637L1145.16 85.835L1145.22 85.8516C1145.97 83.4346 1146.91 81.8613 1148.05 81.1494C1149.19 80.4376 1150.67 80.0733 1152.47 80.0732C1155.09 80.0732 1156.38 80.9512 1156.38 82.6729C1156.38 83.7321 1156.26 84.5928 1156.01 85.2715L1139.26 133.644C1138.88 134.703 1138.5 135.598 1138.1 136.343C1137.71 137.088 1137.18 137.716 1136.51 138.246C1135.87 138.776 1135.02 139.157 1134 139.405C1132.97 139.654 1131.68 139.786 1130.14 139.786C1128.9 139.786 1127.84 139.703 1126.98 139.554C1126.12 139.405 1125.36 139.09 1124.69 138.627C1124.03 138.163 1123.5 137.534 1123.05 136.723C1122.62 135.912 1122.18 134.902 1121.75 133.66L1105.74 86.2158C1105.49 85.5373 1105.34 84.9576 1105.28 84.4941C1105.21 84.0308 1105.18 83.5835 1105.18 83.1367C1105.18 82.3255 1105.31 81.7126 1105.59 81.2822C1105.87 80.8518 1106.24 80.5209 1106.67 80.3057C1107.1 80.0905 1107.54 79.9745 1108.01 79.9248C1108.47 79.8917 1108.88 79.875 1109.26 79.875ZM1169.8 80.1875C1170.68 80.1875 1171.38 80.2376 1171.89 80.3369C1172.4 80.4362 1172.82 80.8 1173.1 81.4287C1173.4 82.0578 1173.58 83.0517 1173.65 84.4092C1173.71 85.7666 1173.76 87.6868 1173.76 90.1367V133.924H1173.75C1173.75 135.844 1173.58 137.301 1173.25 138.244C1172.92 139.204 1171.91 139.685 1170.22 139.685C1169.19 139.685 1167.7 139.602 1167.12 139.437C1166.54 139.271 1166.11 138.856 1165.87 138.194C1165.62 137.532 1165.47 136.539 1165.43 135.215C1165.4 133.891 1165.37 132.069 1165.37 129.735V85.9482C1165.37 84.9552 1165.38 84.0945 1165.43 83.3662C1165.47 82.6378 1165.6 82.0416 1165.82 81.5781C1166.03 81.1148 1166.39 80.7669 1166.92 80.5352C1167.44 80.3034 1168.84 80.1875 1169.8 80.1875ZM1325.73 79.8047C1326.43 79.8047 1327.25 80.0201 1328.25 80.5498C1328.86 80.8313 1329.84 82.0563 1330.67 84.3242L1349.82 136.57V136.604C1350.02 137.05 1350.1 137.464 1350.1 137.878C1350.1 138.275 1350.03 138.491 1349.97 138.59L1349.67 138.805C1348.91 139.053 1348.26 139.169 1347.73 139.169C1346.03 139.185 1344.94 138.854 1344.49 138.49C1343.81 137.977 1343.15 137.232 1342.5 136.206C1341.76 135.031 1340.88 133.838 1339.85 132.646C1338.81 131.438 1337.87 130.578 1336.89 130.048H1336.84C1335.76 129.435 1334.47 129.022 1332.93 128.74C1331.38 128.459 1329.74 128.326 1328.02 128.326H1318.83C1316.15 128.326 1313.23 127.863 1310.98 129.005C1308.76 130.131 1307.49 132.63 1306.45 134.468C1306 135.196 1305.57 135.875 1305.15 136.537C1304.81 137.116 1304.39 137.597 1303.95 138.011C1303.53 138.375 1303.05 138.673 1302.42 138.888C1301.84 139.086 1301.05 139.202 1300.07 139.202C1299.41 139.202 1298.78 139.07 1298.12 138.805L1297.85 138.573C1297.79 138.457 1297.71 138.209 1297.71 137.795C1297.71 137.761 1297.75 137.347 1297.9 136.769C1298.05 136.239 1298.38 135.229 1298.88 133.822C1299.39 132.399 1300.09 130.462 1300.95 127.979C1301.81 125.512 1302.94 122.334 1304.34 118.443C1305.73 114.553 1307.46 109.851 1309.46 104.306C1311.48 98.7599 1313.85 92.1706 1316.59 84.5225C1317.21 82.8009 1317.97 81.5926 1318.75 80.8643V80.8477C1319.54 80.1194 1320.32 79.8047 1321.33 79.8047H1325.73ZM1363.14 78.7109C1363.99 78.7109 1364.65 78.8266 1365.1 78.9756C1365.55 79.1411 1365.79 79.3239 1365.99 79.5391C1366.46 80.0523 1366.82 80.9294 1366.82 82.502V82.5186L1366.72 107.268C1366.72 111.853 1366.75 115.413 1366.82 117.979C1366.87 120.528 1366.97 122.497 1367.1 123.938C1367.25 125.394 1367.42 126.471 1367.9 127.497C1368.21 128.142 1368.57 128.772 1368.99 129.4H1369V129.434C1369.63 130.36 1370.3 131.155 1371.06 131.801C1372.02 132.612 1373.18 133.076 1374.53 133.407C1375.89 133.738 1377.58 133.937 1379.72 134.069C1381.83 134.202 1384.63 134.251 1388.16 134.251C1389.68 134.251 1390.74 134.549 1391.37 134.946L1391.85 135.427C1391.93 135.576 1392 135.791 1392 136.172C1391.97 137.43 1391.69 137.894 1391.25 138.274C1390.82 138.655 1389.85 139.019 1388.14 139.019H1362.95C1361.51 139.002 1360.83 138.655 1360.43 138.241C1360.13 137.976 1359.64 136.817 1359.65 134.665V82.502C1359.65 80.7973 1360.07 79.9365 1360.48 79.5391C1360.96 79.059 1361.7 78.711 1363.14 78.7109ZM850.651 80.2891C852.621 80.2891 854.294 80.5542 855.651 81.084C857.009 81.6137 858.151 82.2925 859.045 83.1201C859.955 83.9478 860.667 84.8751 861.196 85.8848C861.726 86.8946 862.206 87.9043 862.637 88.9307L878.96 131.161L878.977 131.145C879.192 131.625 879.291 132.204 879.291 132.899C879.291 133.694 879.076 134.472 878.646 135.217C878.215 135.962 877.652 136.624 876.924 137.17C876.195 137.733 875.384 138.164 874.44 138.495C873.514 138.81 872.504 138.975 871.444 138.975C870.054 138.975 868.729 138.743 867.438 138.296C866.146 137.849 864.822 136.888 863.432 135.465C862.256 134.19 861.279 133.197 860.518 132.502C859.74 131.807 858.978 131.293 858.233 130.979C857.488 130.664 856.66 130.466 855.75 130.416C854.84 130.366 853.664 130.333 852.224 130.333C849.989 130.333 848.334 130.416 847.274 130.565C846.198 130.731 845.305 130.963 844.56 131.294C843.434 131.774 842.755 132.154 842.49 132.419L839.13 135.779C836.68 137.915 834.114 138.975 831.448 138.975C829.098 138.975 827.31 138.462 826.085 137.419C824.86 136.376 824.247 134.935 824.247 133.064C824.247 131.79 824.313 130.879 824.445 130.35C824.578 129.82 824.727 129.34 824.893 128.909L840.255 88.1191C842.225 82.888 845.702 80.2891 850.651 80.2891ZM1071.11 89.5752C1065.93 89.5752 1061.89 91.2972 1058.79 94.7402C1055.51 98.4816 1053.87 103.581 1053.87 110.07C1053.87 116.278 1055.43 121.328 1058.53 125.234C1061.62 129.141 1065.59 131.095 1070.41 131.095C1075.92 131.095 1080.3 129.207 1083.51 125.449C1086.72 121.691 1088.34 116.625 1088.34 110.252C1088.34 104.276 1086.75 99.3424 1083.61 95.4355C1080.44 91.529 1076.29 89.5753 1071.11 89.5752ZM975.423 94.1738C973.718 94.1738 972.277 94.3388 971.118 94.6699C969.959 95.001 969.016 95.6306 968.304 96.541C967.592 97.4515 967.079 98.7265 966.765 100.349C966.467 101.971 966.317 104.056 966.317 106.589V116.142C966.317 119.403 967.03 121.803 968.47 123.376C969.91 124.949 971.665 125.743 973.768 125.743C976.135 125.743 978.204 125.296 979.976 124.386C981.747 123.475 983.204 122.3 984.362 120.876C985.521 119.436 986.382 117.813 986.961 115.992C987.54 114.171 987.822 112.35 987.822 110.529C987.822 107.549 987.391 105.033 986.547 102.964C985.686 100.895 984.643 99.2062 983.401 97.8818C982.16 96.5575 980.819 95.6136 979.396 95.0342C977.955 94.4548 976.631 94.1739 975.423 94.1738ZM1323.98 92.3203C1322.02 92.3203 1320.35 92.7666 1318.91 94.1572C1317.5 95.4981 1316.36 98.4783 1315.72 100.448V100.481L1312.69 110.48C1312.67 110.53 1311.46 115.666 1311.46 116.605C1311.43 119.436 1311.98 119.287 1315.37 120.214C1317.54 120.81 1320.32 120.926 1323.75 120.926C1327.24 120.926 1329.62 120.578 1332.35 120.164C1334.84 119.783 1336.44 118.393 1336.43 115.629C1336.43 114.454 1334.97 109.553 1334.97 109.553L1331.91 100.398C1331.14 98.3788 1330.07 95.4982 1328.88 94.207H1328.89C1327.62 92.8166 1325.91 92.3204 1323.98 92.3203ZM851.28 107.803C850.486 107.803 849.807 108.266 849.244 109.21C848.681 110.154 848.4 111.163 848.4 112.289L848.417 112.272C848.417 113.233 848.665 114.061 849.178 114.756C849.691 115.451 850.337 115.799 851.132 115.799C852.092 115.799 852.87 115.517 853.449 114.954C854.029 114.391 854.326 113.547 854.326 112.438C854.326 111.329 854.012 110.269 853.399 109.276C852.787 108.283 852.075 107.803 851.28 107.803ZM92.374 48.5029C82.1765 48.5029 74.7103 50.3414 70.0088 53.9834C65.291 57.6419 62.9404 63.1216 62.9404 70.4385H62.9238C62.9239 77.9374 65.4236 83.5654 70.4395 87.3232C75.4389 91.0811 81.4152 92.9521 88.335 92.9521C99.3105 92.9521 107.439 90.7335 112.72 86.3135C118.017 81.8935 120.666 76.7784 120.666 71.0176C120.666 64.2799 118.166 58.8496 113.167 54.7109C108.151 50.5723 101.231 48.5029 92.374 48.5029ZM929.633 6.93359C931.768 6.93361 933.474 7.21456 934.781 7.79395C936.089 8.37335 937.314 9.21816 938.473 10.377H938.506C939.151 11.0391 940.079 12.2474 941.254 14.0186C942.429 15.7899 943.588 17.7935 944.73 20.0283C946.634 23.6206 948.405 26.4021 950.044 28.3721C951.683 30.3419 952.958 31.3182 953.885 31.3184C954.53 31.3184 955.16 30.7556 955.772 29.6465C956.368 28.5374 956.666 26.8489 956.666 24.6143C956.666 21.6676 956.699 19.1179 956.782 16.9658C956.865 14.8138 957.213 13.1087 957.809 11.8506C959.166 8.90389 961.351 7.43066 964.348 7.43066C965.87 7.43069 967.161 7.66254 968.188 8.12598C969.23 8.58944 970.058 9.39998 970.688 10.542C971.317 11.6842 971.747 13.2243 971.995 15.1611C972.243 17.098 972.359 19.5318 972.359 22.4785V55.2061C972.359 62.9536 969.413 66.8281 963.52 66.8281C961.119 66.8281 959.166 66.4303 957.659 65.6357C956.153 64.8412 954.845 63.8813 953.687 62.7227C953.405 62.5075 952.991 61.928 952.411 61.001C951.832 60.0739 951.186 58.9975 950.441 57.7725C949.696 56.5475 948.935 55.256 948.157 53.9316C947.363 52.5908 946.634 51.3826 945.988 50.29C944.73 48.3201 943.522 46.5816 942.347 45.0586C941.171 43.5356 940.211 42.7578 939.449 42.7578C937.38 42.758 936.337 45.1083 936.337 49.793C936.337 52.0278 936.304 53.8655 936.205 55.3223C936.122 56.7625 936.023 57.9381 935.874 58.8486C935.742 59.7425 935.576 60.4713 935.377 61.0176C935.178 61.5637 935.013 62.0768 934.848 62.5732C934.301 63.9305 933.49 64.9237 932.431 65.5527C931.371 66.1818 930.096 66.497 928.623 66.4971C926.719 66.4971 925.229 66.1651 924.17 65.5195C923.11 64.8739 922.316 63.8976 921.803 62.623C921.29 61.3484 920.958 59.7916 920.825 57.9541C920.693 56.1332 920.627 54.0144 920.627 51.6143V18.5547C920.627 14.6316 921.273 11.7182 922.597 9.79785C923.904 7.89408 926.256 6.93359 929.633 6.93359ZM896.888 6.125C898.808 6.12503 900.446 6.35687 901.787 6.82031C903.145 7.28384 904.238 8.0784 905.099 9.2041C905.959 10.3298 906.571 11.8366 906.936 13.7568C907.3 15.6771 907.482 18.0775 907.482 20.9248V54.7451L907.516 54.7783C907.516 62.4761 904.287 66.3173 897.848 66.3174C895.712 66.3174 894.024 65.9695 892.782 65.2578C891.541 64.5625 890.563 63.5853 889.852 62.3271C889.156 61.0856 888.693 59.6122 888.478 57.9238C888.279 56.2353 888.163 54.3976 888.163 52.4277L888.312 17.8125C888.312 14.3857 889.007 11.571 890.414 9.40234C891.821 7.21724 893.974 6.125 896.888 6.125ZM851.413 6.10547C853.333 6.10547 854.988 6.18796 856.346 6.33691C857.703 6.50246 858.912 6.70095 859.988 6.96582C861.064 7.23067 862.024 7.5461 862.885 7.94336C863.746 8.34067 864.624 8.77085 865.501 9.23438C866.643 9.86337 867.752 10.6081 868.828 11.4688C869.904 12.3296 870.831 13.2076 871.643 14.085C872.454 14.9622 873.099 15.8395 873.562 16.7002C874.026 17.561 874.258 18.3065 874.258 18.9355C874.258 19.9783 874.043 20.9057 873.629 21.7168C873.215 22.5277 872.669 23.2226 871.99 23.835C871.312 24.4309 870.534 24.8945 869.64 25.209C868.746 25.5235 867.835 25.6894 866.908 25.6895C865.501 25.6895 864.243 25.3751 863.15 24.7461L858.763 22.0801C857.869 21.5009 856.892 21.1038 855.783 20.8721C854.691 20.6403 853.747 20.5244 852.969 20.5244C851.562 20.5245 850.138 20.8063 848.698 21.3525C847.258 21.8988 845.966 22.7925 844.791 24.0176C843.616 25.2426 842.673 26.8485 841.928 28.835C841.183 30.8215 840.835 33.2219 840.835 36.0361C840.835 38.4861 841.166 40.6882 841.845 42.6416C842.523 44.5948 843.401 46.2667 844.46 47.6406C845.536 49.0146 846.761 50.091 848.135 50.8525C849.509 51.614 850.916 51.9775 852.323 51.9775L852.356 51.9287C853.615 51.9287 854.658 51.8452 855.485 51.6631C856.313 51.481 857.091 51.2334 857.786 50.9189C858.481 50.6045 859.177 50.24 859.855 49.8262C860.534 49.4124 861.312 48.9654 862.206 48.502C863.398 47.8729 864.375 47.5085 865.104 47.4092C865.832 47.3099 866.494 47.2432 867.057 47.2432C868.05 47.2432 868.994 47.4092 869.921 47.7568C870.831 48.1045 871.609 48.5348 872.271 49.0811C872.917 49.6273 873.447 50.2559 873.828 50.9512C874.209 51.6465 874.424 52.3919 874.424 53.1865C874.424 54.693 873.811 56.2329 872.586 57.7559C871.361 59.2953 869.772 60.702 867.818 61.9766C865.865 63.2513 863.68 64.2943 861.279 65.1055C858.879 65.9166 856.479 66.3145 854.078 66.3145C849.757 66.3144 845.768 65.5523 842.143 64.0127C838.517 62.4731 835.421 60.3712 832.839 57.6729C830.256 54.991 828.254 51.8453 826.813 48.2529C825.373 44.6606 824.661 40.7703 824.661 36.5986C824.661 27.7256 827.011 20.6401 831.696 15.3262C834.362 12.247 837.408 9.94582 840.852 8.40625C844.295 6.86681 847.804 6.10547 851.413 6.10547ZM1249.25 7C1252.74 7 1254.5 8.57259 1254.5 11.7178C1254.5 14.8631 1252.74 16.2705 1249.22 16.2705H1231.27C1229.27 16.2705 1227.63 16.85 1226.34 18.0254C1225.05 19.2007 1224.4 20.8892 1224.4 23.0908C1224.4 27.8751 1226.69 30.2588 1231.27 30.2588H1247.3C1250.82 30.2588 1252.58 31.8322 1252.58 34.9775C1252.58 38.1226 1250.82 39.5293 1247.33 39.5293H1231.4C1226.74 39.5294 1224.4 42.2117 1224.4 47.5752V50.0254C1224.4 54.6936 1226.9 57.0273 1231.92 57.0273H1251.87C1255.36 57.0274 1257.11 58.6008 1257.11 61.7461C1257.11 64.8911 1254.9 66.2978 1250.46 66.2979H1217.04C1213.43 66.2978 1211.62 64.2617 1211.62 60.1729V12.6777C1211.62 8.88715 1213.31 7.00009 1216.69 7H1249.25ZM1019.24 7.03516C1020.37 7.03516 1021.43 7.20109 1022.44 7.51562C1023.45 7.83015 1024.32 8.27707 1025.07 8.83984C1025.81 9.40268 1026.41 10.0647 1026.87 10.8428C1027.34 11.6208 1027.55 12.4322 1027.55 13.2764C1027.55 15.0807 1027.15 16.4882 1026.34 17.4814C1025.55 18.4745 1024.42 19.2026 1022.98 19.6826C1021.54 20.1627 1019.8 20.4446 1017.79 20.5273C1015.77 20.6101 1013.51 20.6426 1011.06 20.6426C1008.4 20.6426 1006.4 20.9579 1005.07 21.6035C1003.73 22.2491 1003.07 23.093 1003.07 24.1689C1003.07 25.1291 1003.37 25.8746 1003.95 26.4043C1004.53 26.9338 1005.27 27.3308 1006.15 27.5625C1007.02 27.7943 1007.99 27.9434 1009.03 27.96C1010.07 27.9931 1011.03 27.9932 1011.94 27.9932C1013.55 27.9932 1015.17 28.0266 1016.83 28.1094C1018.48 28.1921 1019.95 28.4564 1021.26 28.9033C1022.57 29.3503 1023.65 30.0623 1024.51 31.0225C1025.35 31.9825 1025.78 33.3235 1025.78 35.0283C1025.78 36.7332 1025.35 37.942 1024.51 38.8193C1023.65 39.6967 1022.59 40.3429 1021.31 40.7402C1020.04 41.1375 1018.61 41.386 1017.07 41.4688C1015.53 41.5515 1014.06 41.584 1012.67 41.584C1010.44 41.584 1008.6 41.6999 1007.16 41.9482C1005.72 42.18 1004.59 42.5444 1003.8 43.0244C1003 43.5044 1002.44 44.084 1002.12 44.7461C1001.81 45.4083 1001.64 46.1704 1001.64 47.0312C1001.64 48.3718 1001.91 49.3977 1002.44 50.1426C1002.97 50.8875 1003.86 51.467 1005.12 51.8643C1006.38 52.2616 1008.04 52.5101 1010.09 52.626C1012.14 52.7253 1014.66 52.792 1017.65 52.792C1017.92 52.792 1018.18 52.7918 1018.45 52.7588C1018.71 52.7257 1019.09 52.7256 1019.57 52.7256C1020.85 52.7256 1022.14 52.8247 1023.45 53.0068C1024.75 53.1889 1025.95 53.5367 1027.01 54.0498C1028.07 54.563 1028.94 55.225 1029.61 56.0527C1030.27 56.8804 1030.6 57.9236 1030.6 59.2148C1030.6 60.8703 1030.1 62.1618 1029.12 63.0889C1028.13 64.0158 1026.96 64.728 1025.57 65.208C1024.18 65.6881 1022.72 65.9856 1021.16 66.085C1019.62 66.1843 1018.28 66.251 1017.16 66.251H1000.83L1000.85 66.2344C997.92 66.2344 995.42 66.1676 993.334 66.0352C991.248 65.9027 989.526 65.5058 988.169 64.8271C986.812 64.165 985.802 63.1218 985.173 61.7148C984.527 60.3077 984.213 58.3376 984.213 55.8379V16.0078C984.213 13.442 985.008 11.3232 986.613 9.60156C988.219 7.8799 990.289 7.03516 992.854 7.03516H1019.24ZM1144.87 6.73438C1147.79 6.73443 1149.84 8.30703 1151 11.4688L1169.9 61.5459C1170.14 62.0756 1170.25 62.606 1170.25 63.1191C1170.25 65.1055 1168.8 66.0986 1165.87 66.0986H1161.66V66.0654C1159.62 66.0654 1157.75 64.543 1156.06 61.5137C1154.77 59.1795 1153.43 57.722 1152.04 57.1426C1151 56.6791 1148.3 56.4473 1144 56.4473H1137.34C1134.78 56.4473 1132.99 56.7458 1132.01 57.3252C1130.84 57.9709 1129.48 59.5435 1127.89 62.0596C1126.96 63.5825 1126.13 64.5923 1125.44 65.1221C1124.51 65.7676 1123.15 66.082 1121.42 66.082H1117.92C1115.47 66.082 1114.25 65.0557 1114.25 63.0195C1114.25 62.2582 1114.41 61.4141 1114.78 60.4873L1132.81 11.8164C1134.03 8.43943 1136.02 6.73438 1138.75 6.73438H1144.87ZM1052.33 7.03516C1053.16 7.03516 1054.06 7.10108 1055.02 7.2666C1055.83 7.41559 1056.64 7.69765 1057.47 8.17773C1058.21 8.60815 1058.96 9.2703 1059.67 10.2139C1060.3 11.0581 1060.89 12.3165 1061.34 13.9883H1061.41L1063.86 23.54C1064.9 27.6124 1065.78 30.6915 1066.52 32.7939C1066.92 33.9362 1067.4 34.8967 1068.09 35.6582C1068.76 36.4196 1069.8 36.9658 1070.89 36.9658C1071.67 36.9658 1072.43 36.6677 1073.01 36.2207C1073.59 35.7738 1074.04 35.2109 1074.43 34.5488C1075.16 33.3238 1075.81 31.7511 1076.4 29.7812C1077 27.8444 1077.61 25.5597 1078.24 22.8779C1078.87 20.2292 1079.6 17.3152 1080.41 14.1367C1081.01 11.8359 1082.02 10.1477 1083.46 8.87305C1084.76 7.7308 1086.77 7.03517 1089.75 7.03516H1094.5C1096.5 7.03516 1097.93 7.38237 1098.8 7.91211C1099.81 8.52462 1100.52 9.27018 1101.04 10.1807C1101.57 11.1739 1101.91 12.3163 1102.06 13.6572C1102.21 15.1305 1102.29 16.6373 1102.29 18.1768V55.9707C1102.31 59.662 1101.62 62.2279 1100.56 63.7178C1099.48 65.1746 1098.14 65.8702 1095.79 65.9033C1093.97 65.9032 1092.79 65.4223 1091.88 64.5781C1090.94 63.6842 1090.11 62.2112 1089.57 60.0098L1089.53 59.96V59.9102C1089.45 59.6122 1089.3 58.8505 1089.2 57.7744C1089.09 56.6157 1088.95 55.4565 1088.79 54.2812C1088.6 53.0564 1088.36 51.9472 1088.01 50.9375C1087.79 50.3417 1087.55 49.812 1087.08 49.3154C1086.64 48.8188 1085.87 48.4541 1085.13 48.4541C1084.35 48.4377 1083.57 48.8188 1083.08 49.2988C1082.46 49.9113 1082.15 50.5407 1081.77 51.418C1081.44 52.2125 1081.01 53.305 1080.48 54.6787C1079.96 56.0362 1079.3 57.8079 1078.47 59.9766C1077.65 62.1616 1076.59 63.6678 1075.36 64.6279C1074.14 65.5881 1072.73 66.0684 1070.88 66.0684C1069.14 66.0518 1067.7 65.5722 1066.32 64.5293C1064.98 63.5029 1063.91 61.9957 1063.11 59.8105C1061.57 55.6888 1060.45 52.792 1059.67 51.0703C1059.25 50.1598 1058.86 49.4475 1058.38 48.835C1058.13 48.5206 1057.86 48.2395 1057.5 48.0078C1057.13 47.7761 1056.65 47.5771 1056.11 47.5771H1055.68L1054.52 48.2227L1054.25 48.3721L1054.06 48.6035C1053.51 49.2656 1053.28 49.9607 1053.01 50.8379C1052.75 51.7318 1052.55 52.8744 1052.35 54.3145C1052.15 55.7712 1051.97 57.5757 1051.8 59.7607C1051.72 61.0022 1051.44 61.9463 1051.04 62.6416C1050.58 63.4528 1050.07 64.0657 1049.52 64.5127C1048.92 64.9926 1048.31 65.3239 1047.67 65.5391C1046.94 65.7873 1046.36 65.8867 1045.94 65.8867C1044.34 65.8867 1043.25 65.572 1042.55 65.125C1041.76 64.6284 1041.19 63.9659 1040.76 63.0059C1040.32 61.9795 1039.98 60.6878 1039.83 59.082C1039.69 57.4101 1039.6 55.5065 1039.6 53.3877V17.6465C1039.6 13.7231 1040.28 10.9417 1041.34 9.33594C1041.82 8.62421 1042.47 8.09448 1043.48 7.68066C1044.47 7.28341 1045.84 7.03516 1047.58 7.03516H1052.33ZM1142.06 24.7461C1140.26 24.7461 1138.96 26.3186 1138.04 29.4805L1134.71 40.8535C1134.59 41.2673 1134.53 41.6978 1134.53 42.1611C1134.53 43.5018 1135.04 44.6936 1136.07 45.7529C1137.09 46.7958 1138.27 47.3261 1139.61 47.3262H1144.16C1145.73 47.3262 1147.04 46.8125 1148.1 45.8027C1149.16 44.7764 1149.67 43.5349 1149.67 42.0781C1149.67 41.5485 1149.59 41.0354 1149.41 40.5059L1146.26 29.8281C1145.27 26.451 1143.86 24.7461 1142.06 24.7461Z" fill="#FCCB1C"/>
</svg>
