<svg width="1392" height="214" viewBox="0 0 1392 214" fill="none" xmlns="http://www.w3.org/2000/svg">
<path d="M1015.55 153.312C1024.65 153.313 1031.94 156.375 1037.4 162.533C1042.4 168.162 1044.92 175.164 1044.92 183.524C1044.92 192.398 1042.23 199.649 1036.89 205.294C1031.54 210.922 1024.54 213.753 1015.9 213.753C1007.25 213.753 999.739 210.74 994.375 204.697C989.359 199.118 986.859 192.182 986.859 183.872C986.859 174.088 989.938 166.374 996.08 160.745C1001.49 155.795 1007.97 153.312 1015.55 153.312ZM333.143 0C337.182 1.21303e-05 341.039 0.579516 344.697 1.73828C348.356 2.89705 351.518 4.48633 354.232 6.50586C356.931 8.52551 359.084 10.9259 360.723 13.7236C362.361 16.5212 363.172 19.4513 363.172 22.5303C363.172 29.0692 361.732 34.1351 358.835 37.6943C355.954 41.2536 351.915 43.9024 346.717 45.6406C341.519 47.3788 335.261 48.3885 327.961 48.6699C320.644 48.9513 312.565 49.1006 303.709 49.1006C294.091 49.1006 286.873 50.2596 282.056 52.5605C277.238 54.8616 274.838 57.9572 274.838 61.7979C274.838 65.2577 275.897 67.9566 278.016 69.877C280.135 71.7972 282.784 73.2036 285.962 74.0645C289.14 74.9253 292.601 75.4221 296.358 75.5049C300.116 75.6042 303.626 75.6543 306.887 75.6543C312.664 75.6543 318.525 75.8026 324.501 76.084C330.46 76.3654 335.807 77.3426 340.525 78.9648C345.243 80.6037 349.134 83.1534 352.213 86.6133C355.292 90.0732 356.832 94.8906 356.832 101.049C356.832 107.207 355.292 111.577 352.213 114.756C349.134 117.934 345.293 120.236 340.658 121.692C336.04 123.133 330.941 123.993 325.362 124.291C319.784 124.572 314.486 124.722 309.486 124.722C301.408 124.722 294.769 125.152 289.571 126.013C284.373 126.874 280.334 128.182 277.453 129.903C274.573 131.642 272.553 133.711 271.395 136.111C270.236 138.512 269.656 141.26 269.656 144.339C269.656 149.156 270.616 152.897 272.536 155.596C274.456 158.294 277.685 160.363 282.204 161.804C286.723 163.244 292.683 164.154 300.1 164.552C307.499 164.933 316.605 165.131 327.382 165.131C328.342 165.131 329.302 165.082 330.262 164.982C331.222 164.883 332.563 164.833 334.301 164.833C338.919 164.833 343.589 165.164 348.307 165.843C353.024 166.521 357.295 167.763 361.152 169.601C365.009 171.438 368.122 173.839 370.539 176.818C372.939 179.798 374.147 183.606 374.147 188.225C374.147 194.184 372.36 198.852 368.801 202.229C365.242 205.607 360.954 208.156 355.954 209.878C350.955 211.616 345.658 212.676 340.079 213.057C334.5 213.437 329.683 213.636 325.644 213.636H266.742C256.164 213.636 247.109 213.387 239.609 212.907C232.094 212.427 225.885 210.987 220.985 208.587C216.085 206.187 212.477 202.428 210.159 197.329C207.858 192.23 206.699 185.162 206.699 176.106V32.3311C206.699 23.0936 209.58 15.3956 215.357 9.2373C221.135 3.07919 228.634 5.33476e-05 237.871 0H333.143ZM725.482 0C729.522 1.69613e-05 733.379 0.579516 737.037 1.73828C740.695 2.89705 743.857 4.48632 746.572 6.50586C749.271 8.52551 751.424 10.9259 753.062 13.7236C754.701 16.5212 755.512 19.4513 755.512 22.5303C755.512 29.0692 754.072 34.1351 751.175 37.6943C748.294 41.2536 744.255 43.9024 739.057 45.6406C733.859 47.3788 727.601 48.3885 720.301 48.6699C712.984 48.9513 704.905 49.1006 696.049 49.1006C686.431 49.1006 679.213 50.2596 674.396 52.5605C669.578 54.8616 667.178 57.9572 667.178 61.7979C667.178 65.2577 668.237 67.9566 670.355 69.877C672.474 71.7972 675.123 73.2036 678.302 74.0645C681.48 74.9253 684.94 75.4221 688.698 75.5049C692.456 75.6042 695.965 75.6543 699.227 75.6543C705.004 75.6543 710.865 75.8026 716.841 76.084C722.8 76.3654 728.147 77.3426 732.865 78.9648C737.583 80.6037 741.474 83.1534 744.553 86.6133C747.632 90.0732 749.172 94.8906 749.172 101.049C749.172 107.207 747.632 111.577 744.553 114.756C741.474 117.934 737.633 120.236 732.998 121.692C728.38 123.133 723.281 123.993 717.702 124.291C712.123 124.572 706.826 124.722 701.826 124.722C693.748 124.722 687.109 125.152 681.911 126.013C676.713 126.874 672.673 128.182 669.793 129.903C666.913 131.642 664.893 133.711 663.734 136.111C662.576 138.512 661.996 141.26 661.996 144.339C661.996 149.156 662.956 152.897 664.876 155.596C666.796 158.294 670.025 160.363 674.544 161.804C679.063 163.244 685.023 164.154 692.439 164.552C699.839 164.933 708.945 165.131 719.722 165.131C720.682 165.131 721.642 165.082 722.602 164.982C723.562 164.883 724.903 164.833 726.641 164.833C731.259 164.833 735.928 165.164 740.646 165.843C745.364 166.521 749.635 167.763 753.492 169.601C757.349 171.438 760.462 173.839 762.879 176.818C765.279 179.798 766.487 183.606 766.487 188.225C766.487 194.184 764.7 198.852 761.141 202.229C757.581 205.607 753.293 208.156 748.294 209.878C743.295 211.616 737.998 212.676 732.419 213.057C726.84 213.437 722.023 213.636 717.983 213.636H659.082C648.504 213.636 639.448 213.387 631.949 212.907C624.434 212.427 618.225 210.987 613.325 208.587C608.425 206.187 604.817 202.428 602.499 197.329C600.198 192.23 599.039 185.162 599.039 176.106V32.3311C599.039 23.0936 601.92 15.3956 607.697 9.2373C613.475 3.07919 620.974 4.7734e-05 630.211 0H725.482ZM101.049 0.578125C117.404 0.578142 130.979 2.64758 141.756 6.78613C152.533 10.9247 161.141 16.1724 167.598 22.5127C174.037 28.8696 178.606 35.9883 181.305 43.8848C184.003 51.7812 185.344 59.4793 185.344 66.9785C185.344 72.5573 185.013 77.6067 184.334 82.126C183.655 86.6452 182.464 90.8334 180.726 94.6904C178.027 100.849 175.229 105.765 172.349 109.407C169.468 113.066 166.869 116.294 164.552 119.075C162.251 121.873 160.314 124.654 158.774 127.452C157.235 130.25 156.473 133.941 156.473 138.56C156.473 142.798 157.582 147.317 159.801 152.135C162.019 156.952 164.469 161.753 167.167 166.57C169.865 171.388 172.316 176.056 174.534 180.575C176.752 185.094 177.861 189.2 177.861 192.842H177.828C177.828 200.341 175.71 205.689 171.472 208.867C167.234 212.046 160.876 213.635 152.417 213.635C143.958 213.635 136.773 211.945 130.913 208.585C125.036 205.224 120.086 200.176 116.047 193.422L98.1514 163.971C94.8736 158.591 91.5626 154.435 88.1855 151.555C84.8087 148.675 81.7793 147.234 79.0977 147.234C72.7409 147.234 68.1718 149.403 65.3906 153.724C62.5929 158.044 61.2021 165.329 61.2021 175.526C61.2021 188.223 58.6031 197.659 53.4053 203.817C48.2072 209.976 40.9892 213.055 31.752 213.055C21.9351 213.055 14.187 210.654 8.50879 205.837C2.83081 201.02 0 195.54 0 189.382L0.579102 40.4248C0.579102 32.5283 1.3904 25.9891 3.0293 20.791C4.66819 15.5929 7.11871 11.5042 10.3965 8.52441C13.6577 5.54465 17.763 3.47521 22.6631 2.31641C27.5798 1.15759 33.2911 0.578125 39.8467 0.578125H101.049ZM852.456 153.43C855.883 153.43 859.061 153.777 862.024 154.489C864.988 155.201 867.554 156.343 869.723 157.949C871.891 159.555 873.613 161.641 874.854 164.224C876.096 166.806 876.725 169.935 876.725 173.626C876.725 176.838 876.244 179.569 875.301 181.854C874.357 184.138 873.099 186.059 871.56 187.599C870.02 189.138 868.265 190.396 866.345 191.356C864.408 192.3 862.487 193.028 860.551 193.508C858.631 194.004 856.81 194.303 855.088 194.452C853.383 194.585 851.96 194.65 850.817 194.65C848.583 194.65 846.861 194.998 845.636 195.71C844.411 196.422 843.484 197.266 842.871 198.243C842.242 199.22 841.861 200.23 841.729 201.306C841.596 202.365 841.53 203.242 841.53 203.954C841.53 206.57 840.884 208.755 839.576 210.56C838.268 212.364 836.1 213.241 833.054 213.241C831.365 213.241 829.991 212.976 828.898 212.43C827.806 211.883 826.945 211.122 826.283 210.112C825.638 209.103 825.174 207.878 824.942 206.454C824.694 205.014 824.578 203.424 824.578 201.686V163.876C824.578 160.35 825.373 157.717 826.945 156.012C828.518 154.307 831.15 153.446 834.858 153.446H852.456V153.43ZM907.815 154.125C910.729 154.125 912.765 155.698 913.924 158.826L932.764 208.705C932.995 209.235 933.11 209.749 933.11 210.278C933.11 212.248 931.654 213.241 928.757 213.241H924.535C922.499 213.241 920.645 211.734 918.957 208.705C917.682 206.387 916.341 204.931 914.95 204.352C913.907 203.888 911.226 203.656 906.922 203.656H900.3C897.75 203.656 895.962 203.954 894.985 204.533C893.827 205.179 892.452 206.736 890.88 209.235C889.953 210.742 889.141 211.768 888.446 212.281C887.519 212.927 886.178 213.241 884.44 213.241H880.947C878.514 213.241 877.289 212.231 877.289 210.195C877.289 209.434 877.454 208.606 877.818 207.662L895.78 159.19C897.005 155.813 898.976 154.125 901.707 154.125H907.815ZM1184 153.711C1185.68 153.711 1187.15 154.025 1188.41 154.638C1189.68 155.25 1190.31 156.31 1190.31 157.8C1190.31 160.647 1188.03 161.061 1183.44 161.062C1181.27 161.062 1177.53 161.442 1176.26 162.22C1174.98 162.998 1173.38 164.157 1172.73 165.299C1171.16 168.096 1171.57 172.169 1171.57 173.212V205.245C1171.57 208.026 1171.67 210.327 1170.93 211.602C1170.18 212.876 1169.88 212.926 1168.25 213.075C1166.03 213.29 1165.75 212.645 1164.87 211.47C1164.01 210.294 1163.56 208.539 1163.56 206.172V173.957C1163.56 172.417 1163.64 167.12 1162.07 165.117C1161.26 164.091 1159.88 162.684 1158.46 162.038C1157.04 161.393 1153.11 161.062 1150.76 161.062C1149.16 161.062 1147.77 160.714 1146.59 160.035C1145.42 159.356 1144.82 159.29 1144.82 157.8C1144.82 155.085 1146.81 153.711 1150.76 153.711H1184ZM1084.76 153.711C1088.32 153.711 1091.52 154.042 1094.35 154.704C1097.18 155.366 1099.58 156.443 1101.55 157.899C1103.52 159.356 1105.03 161.243 1106.09 163.527C1107.13 165.812 1107.66 168.577 1107.66 171.821C1107.66 176.142 1106.78 179.602 1105.04 182.218C1103.29 184.817 1101.04 186.804 1098.27 188.178C1095.51 189.552 1092.46 190.429 1089.12 190.843C1085.77 191.257 1082.56 191.455 1079.43 191.455C1076.12 191.455 1073.59 191.902 1071.8 192.796C1070.01 193.69 1068.72 194.899 1067.9 196.422C1067.07 197.945 1066.59 199.749 1066.47 201.852C1066.34 203.954 1066.29 206.205 1066.29 208.622C1066.29 209.582 1066.01 210.543 1065.43 211.536C1064.85 212.529 1063.74 213.009 1062.1 213.009C1060.2 213.009 1058.96 212.579 1058.38 211.718C1057.8 210.857 1057.52 209.318 1057.52 207.1V158.28C1057.52 155.234 1059.35 153.711 1063.04 153.711H1084.76ZM422.635 3.16406C440.911 3.16406 455.975 3.26321 467.812 3.44531C479.648 3.64397 489.647 4.30603 497.842 5.46484C506.02 6.62366 513.188 8.39558 519.346 10.8125C525.504 13.2295 532.142 16.6395 539.261 21.0596L539.277 21.0762C552.935 29.7342 563 41.3392 569.439 55.8574C575.879 70.3922 579.107 87.6586 579.107 107.673C579.107 177.731 539.84 212.761 461.322 212.761H423.793C411.857 212.761 403.398 209.731 398.382 203.672C393.383 197.613 390.883 187.945 390.883 174.652V36.0742C390.883 14.1396 401.462 3.16406 422.635 3.16406ZM1205.18 153.727C1206.04 153.71 1206.85 154.174 1207.71 155.134C1208.57 156.094 1208.71 157.501 1208.71 159.289L1208.62 181.142L1208.63 184.325C1208.64 187.428 1208.67 190.172 1208.71 191.984C1208.77 194.401 1208.85 196.272 1208.97 197.547C1209.09 198.838 1209.28 199.749 1209.55 200.278C1209.81 200.825 1210.13 201.354 1210.49 201.9C1211.04 202.678 1211.59 203.308 1212.15 203.788C1212.71 204.268 1213.57 204.632 1214.71 204.913C1215.86 205.178 1217.41 205.377 1219.43 205.493C1221.44 205.609 1226.17 205.675 1229.6 205.675C1231.33 205.675 1232.73 205.989 1233.77 206.618C1234.81 207.247 1235.34 207.513 1235.34 208.771C1235.34 211.883 1233.42 212.43 1229.6 212.43H1206.02C1204.29 212.43 1202.98 211.982 1202.12 211.088C1201.26 210.194 1200.81 208.605 1200.81 206.337V159.289C1200.81 157.386 1201.27 155.979 1202.2 155.068C1203.13 154.158 1203.44 153.76 1205.18 153.727ZM953.221 153.297C954.744 153.297 955.952 153.761 956.879 154.688C957.806 155.614 958.269 156.839 958.27 158.346V192.349C958.27 196.107 959.131 198.391 960.869 199.219C962.607 200.03 967.177 200.444 974.593 200.444C977.01 200.444 978.715 200.775 979.725 201.454C981.016 202.298 981.661 203.921 981.661 206.338C981.661 210.162 979.691 212.065 975.768 212.065H949.33C945.953 212.065 944.281 210.095 944.281 206.172V158.362C944.281 157.022 944.728 155.83 945.622 154.82C946.516 153.811 947.642 153.314 948.982 153.313H953.188L953.221 153.297ZM1132.34 168.953C1133.2 168.953 1133.85 169.185 1134.29 169.632C1134.74 170.079 1135.09 170.708 1135.34 171.47C1135.59 172.248 1135.72 173.125 1135.79 174.102C1135.83 175.095 1135.87 176.088 1135.87 177.098H1135.88C1135.88 177.743 1136.1 178.489 1136.53 179.333C1136.96 180.194 1137.54 180.989 1138.29 181.733C1138.77 182.164 1139.31 182.512 1139.92 182.776C1140.54 183.041 1141.17 183.24 1141.79 183.372C1142.44 183.504 1143.02 183.587 1143.55 183.62C1144.08 183.653 1144.51 183.653 1144.82 183.653C1146.74 183.653 1148.18 183.984 1149.14 184.646C1150.1 185.309 1150.58 186.103 1150.58 187.014C1150.58 188.239 1149.94 189.1 1148.66 189.613C1147.39 190.126 1145.73 190.375 1143.7 190.375C1142.74 190.375 1141.76 190.507 1140.78 190.771C1139.79 191.036 1138.75 191.716 1137.62 192.775C1137.14 193.256 1136.7 194.116 1136.3 195.374C1135.9 196.632 1135.7 198.271 1135.7 200.291C1135.7 201.516 1135.45 202.592 1134.97 203.535C1134.49 204.479 1133.62 204.942 1132.34 204.942C1131.65 204.942 1131.1 204.76 1130.7 204.38C1130.31 203.999 1129.97 203.519 1129.74 202.906C1129.49 202.294 1129.35 201.598 1129.26 200.82C1129.18 200.042 1129.15 199.281 1129.15 198.536C1129.15 197.791 1129 196.765 1128.7 195.457C1128.4 194.149 1127.54 192.891 1126.1 191.649C1125.31 191.004 1124.26 190.606 1122.99 190.457C1121.71 190.292 1120.62 190.209 1119.71 190.209C1118.27 190.209 1117.03 189.977 1115.99 189.53C1114.94 189.083 1114.43 188.289 1114.43 187.18C1114.43 186.65 1114.53 186.17 1114.71 185.739C1114.89 185.309 1115.22 184.944 1115.7 184.613C1116.18 184.282 1116.88 184.051 1117.79 183.886C1118.7 183.72 1119.88 183.653 1121.32 183.653C1122.23 183.653 1123.27 183.422 1124.48 182.975C1125.67 182.528 1126.65 181.899 1127.39 181.104C1128.19 180.194 1128.68 179.233 1128.87 178.224C1129.05 177.214 1129.15 175.823 1129.15 174.068C1129.15 173.588 1129.2 173.059 1129.26 172.479C1129.35 171.884 1129.49 171.337 1129.74 170.808C1129.97 170.278 1130.32 169.83 1130.74 169.482C1131.15 169.135 1131.7 168.953 1132.34 168.953ZM1015.88 163.03C1010.75 163.03 1006.74 164.735 1003.68 168.146C1000.43 171.854 998.812 176.903 998.812 183.343C998.812 189.484 1000.35 194.5 1003.41 198.374C1006.49 202.248 1010.42 204.184 1015.2 204.185C1020.66 204.185 1024.98 202.314 1028.18 198.589C1031.37 194.864 1032.96 189.848 1032.96 183.524C1032.96 177.598 1031.39 172.715 1028.26 168.841C1025.13 164.967 1021.01 163.03 1015.88 163.03ZM905.001 172.087C903.197 172.087 901.922 173.659 900.995 176.788L897.685 188.128C897.569 188.542 897.502 188.972 897.502 189.436C897.502 190.776 898.016 191.969 899.025 193.012C900.035 194.054 901.21 194.584 902.551 194.584H907.087C908.66 194.584 909.968 194.071 911.011 193.062C912.054 192.052 912.583 190.809 912.583 189.353C912.583 188.823 912.5 188.31 912.318 187.78H912.335L909.189 177.152C908.196 173.775 906.805 172.087 905.001 172.087ZM1077.33 158.297C1073.51 158.297 1070.71 159.439 1068.94 161.724C1067.17 164.008 1066.27 167.633 1066.27 172.6C1066.27 174.95 1066.44 177.003 1066.75 178.741C1067.07 180.496 1067.66 181.953 1068.56 183.128C1069.45 184.303 1070.69 185.198 1072.28 185.794C1073.87 186.39 1075.94 186.704 1078.47 186.704H1083.44C1085.54 186.704 1087.51 186.356 1089.35 185.661C1091.19 184.966 1092.78 184.022 1094.12 182.847C1095.46 181.671 1096.52 180.331 1097.31 178.841C1098.11 177.351 1098.5 175.778 1098.5 174.123C1098.5 171.905 1098.21 169.819 1097.59 167.882C1097 165.945 1096.05 164.256 1094.78 162.832C1093.51 161.408 1091.88 160.283 1089.91 159.488C1087.94 158.694 1085.59 158.297 1082.86 158.297H1077.33ZM849.84 166.624C847.224 166.624 845.221 167.203 843.814 168.329C842.407 169.471 841.695 171.011 841.695 172.98C841.695 175.91 842.275 178.062 843.45 179.42C844.625 180.777 846.645 181.456 849.525 181.456C850.717 181.456 851.893 181.274 853.068 180.927C854.244 180.579 855.27 180.099 856.164 179.503C857.058 178.907 857.787 178.178 858.316 177.351C858.846 176.523 859.128 175.596 859.128 174.619C859.128 172.335 858.266 170.431 856.562 168.908C854.856 167.385 852.604 166.624 849.84 166.624ZM478.639 52.8105C472.679 52.8105 467.662 53.39 463.623 54.5488C459.584 55.7076 456.306 57.8772 453.807 61.0391C451.307 64.2175 449.518 68.6374 448.459 74.3154C447.4 79.9935 446.87 87.2608 446.87 96.1172V129.607L446.887 129.624C446.887 140.98 449.386 149.406 454.402 154.886C459.402 160.365 465.56 163.113 472.877 163.113C481.154 163.113 488.372 161.524 494.53 158.346C500.689 155.167 505.788 151.079 509.827 146.079C513.866 141.08 516.895 135.401 518.915 129.044C520.935 122.687 521.944 116.347 521.944 109.99C521.944 99.594 520.454 90.7871 517.475 83.5693C514.495 76.3516 510.836 70.4419 506.499 65.8066C502.162 61.1879 497.494 57.8605 492.494 55.8408C487.495 53.8213 482.876 52.8106 478.639 52.8105ZM1070.76 79.75C1079.95 79.7501 1087.3 82.846 1092.81 89.0537C1097.86 94.7319 1100.39 101.8 1100.39 110.243V110.26C1100.39 119.216 1097.69 126.533 1092.3 132.228C1086.9 137.922 1079.83 140.753 1071.11 140.753C1062.38 140.753 1054.8 137.707 1049.39 131.615C1044.34 125.987 1041.8 118.984 1041.8 110.591C1041.8 100.708 1044.9 92.9272 1051.11 87.249C1056.57 82.2496 1063.11 79.75 1070.76 79.75ZM894.604 79.5156C896.424 79.5156 897.964 79.7308 899.206 80.1777C900.448 80.6247 901.474 81.3861 902.252 82.4785C903.03 83.5711 903.593 85.0118 903.924 86.7666C904.255 88.5379 904.438 90.74 904.438 93.3887V114.297L904.454 114.347C904.454 115.704 904.636 116.962 905 118.138C905.364 119.313 905.878 120.323 906.523 121.184C907.169 122.044 907.947 122.74 908.857 123.253C909.768 123.766 910.794 124.03 911.937 124.03C914.122 124.03 915.959 123.236 917.482 121.646C919.005 120.057 919.75 117.624 919.75 114.347V93.4375C919.75 90.938 919.899 88.8192 920.181 87.0811C920.462 85.3428 920.942 83.9188 921.621 82.8262C922.3 81.7338 923.194 80.939 924.303 80.4424C925.428 79.9458 926.819 79.6973 928.475 79.6973C930.13 79.6973 931.636 79.9134 932.812 80.3604C933.987 80.8073 934.931 81.5519 935.659 82.6279C936.388 83.6873 936.9 85.144 937.215 86.9482C937.529 88.7692 937.679 91.0379 937.679 93.7363V114.959C937.679 118.551 937.232 121.647 936.321 124.279C935.411 126.911 934.218 129.163 932.729 131.033C931.239 132.904 929.584 134.427 927.729 135.603C925.875 136.778 923.988 137.705 922.067 138.367C920.147 139.046 918.294 139.493 916.522 139.725C914.751 139.956 913.211 140.072 911.92 140.072C907.45 140.072 903.311 139.211 899.521 137.506C895.73 135.784 892.684 133.169 890.399 129.626C889.522 128.318 888.827 127.06 888.33 125.835C887.833 124.61 887.452 123.054 887.154 121.15C886.873 119.247 886.691 116.779 886.608 113.733C886.526 110.687 886.492 106.681 886.492 101.682V93.4053C886.492 88.8363 887.055 85.3761 888.214 83.0254C889.356 80.6913 891.492 79.5157 894.604 79.5156ZM959.362 79.9531C964.594 79.9531 968.915 79.9865 972.309 80.0361C975.702 80.1024 978.566 80.2841 980.9 80.6152C983.234 80.9463 985.304 81.46 987.059 82.1387C988.83 82.8339 990.717 83.8103 992.77 85.0684L992.786 85.0518C996.71 87.5349 999.574 90.8624 1001.43 95.0176C1003.28 99.1893 1004.19 104.123 1004.19 109.867C1004.19 129.931 992.935 139.979 970.454 139.979H959.694C956.268 139.979 953.85 139.119 952.41 137.381C950.97 135.643 950.258 132.878 950.258 129.07V89.373C950.258 83.0825 953.287 79.9533 959.362 79.9531ZM1025.65 80.2812C1027.95 80.2812 1029.45 81.3243 1030.12 83.4102C1030.51 84.7677 1030.71 87.6653 1030.71 92.1182V131.153C1030.71 134.315 1030.35 136.501 1029.62 137.742C1028.83 139.199 1027.34 139.943 1025.15 139.943H1021.26C1018.56 139.943 1016.87 138.851 1016.19 136.649C1015.75 135.358 1015.52 132.345 1015.52 127.61L1015.68 87.3994C1015.68 82.665 1017.25 80.2979 1020.42 80.2979H1025.65V80.2812ZM1208.19 79.8125C1210.43 79.8125 1212.76 80.0777 1215.15 80.5908C1217.55 81.104 1219.72 81.766 1221.69 82.5938C1223.66 83.4214 1225.26 84.2986 1226.5 85.2256C1227.75 86.1692 1228.38 87.0306 1228.38 87.8252L1228.44 87.8086C1228.44 88.5367 1228.09 89.1489 1227.4 89.6289C1226.7 90.1255 1226.02 90.3574 1225.34 90.3574C1224.32 90.3573 1223.21 90.1097 1222.02 89.5801C1220.83 89.0669 1219.57 88.4875 1218.19 87.8584C1216.84 87.2129 1215.31 86.6332 1213.64 86.0869C1211.97 85.5406 1210.1 85.2588 1208.05 85.2588C1206.22 85.2588 1204.54 85.524 1202.95 86.0371C1201.37 86.5503 1200 87.2624 1198.86 88.1729C1197.7 89.0833 1196.81 90.159 1196.13 91.4004C1195.46 92.642 1195.13 93.9836 1195.13 95.4404C1195.13 96.6486 1195.38 97.8238 1195.86 98.9492C1196.34 100.075 1197.19 101.101 1198.36 102.045C1199.55 102.988 1201.11 103.8 1203.05 104.495C1204.98 105.19 1207.38 105.753 1210.23 106.184C1214.24 106.796 1217.63 107.525 1220.41 108.369C1223.19 109.213 1225.48 110.256 1227.23 111.498C1228.99 112.74 1230.26 114.196 1231.06 115.868C1231.85 117.54 1232.25 119.46 1232.25 121.646C1232.25 127.34 1230.06 131.793 1225.69 135.021C1221.32 138.233 1215.21 139.839 1207.32 139.839C1204.34 139.839 1201.57 139.558 1198.99 138.979C1196.41 138.399 1194.17 137.704 1192.25 136.876C1190.35 136.065 1188.83 135.188 1187.7 134.244C1186.57 133.301 1186.01 132.506 1186.01 131.827C1186.01 130.801 1186.43 130.089 1187.24 129.691C1188.06 129.294 1188.93 129.096 1189.84 129.096C1190.81 129.096 1191.84 129.377 1192.93 129.956C1194.02 130.535 1195.3 131.148 1196.76 131.827C1198.21 132.489 1199.88 133.118 1201.8 133.697C1203.72 134.277 1205.91 134.559 1208.39 134.559C1210.45 134.559 1212.42 134.277 1214.3 133.697C1216.19 133.118 1217.8 132.357 1219.17 131.43C1220.54 130.503 1221.62 129.393 1222.45 128.151C1223.26 126.91 1223.67 125.586 1223.67 124.195C1223.67 120.735 1222.3 118.137 1219.53 116.382C1216.77 114.627 1212.81 113.418 1207.67 112.739C1200.27 111.829 1194.82 110.206 1191.29 107.872C1187.77 105.538 1186.01 102.012 1186.01 97.2773C1186.01 91.9469 1187.97 87.7088 1191.87 84.5469C1195.78 81.4016 1201.23 79.8126 1208.19 79.8125ZM1287.06 79.9219C1287.87 79.9219 1288.55 80.021 1289.11 80.2031C1289.67 80.3853 1290.14 80.7831 1290.52 81.3789C1290.9 81.9749 1291.16 82.852 1291.31 84.0439C1291.46 85.2192 1291.54 86.7918 1291.54 88.7119V116.226C1291.54 118.907 1291.18 121.639 1290.42 124.403C1289.67 127.184 1288.38 129.701 1286.53 131.985C1284.69 134.27 1282.19 136.141 1279.05 137.598C1275.9 139.071 1271.94 139.8 1267.21 139.8C1262.72 139.8 1258.93 139.17 1255.84 137.929C1252.76 136.687 1250.24 134.982 1248.3 132.83C1246.37 130.678 1244.98 128.162 1244.15 125.298C1243.3 122.434 1242.89 119.404 1242.89 116.226V86.0967C1242.89 84.2924 1243.12 82.8357 1243.6 81.7432C1244.08 80.6507 1244.83 80.1036 1245.89 80.1035H1248.32C1250.57 80.1035 1251.7 82.1071 1251.7 86.0967V116.971C1251.7 119.537 1252.08 121.855 1252.82 123.94C1253.57 126.026 1254.61 127.83 1255.95 129.32C1257.29 130.81 1258.92 131.969 1260.82 132.78C1262.72 133.591 1264.86 133.989 1267.23 133.989C1269.59 133.989 1271.66 133.591 1273.58 132.78C1275.52 131.969 1277.16 130.81 1278.5 129.32C1279.84 127.83 1280.88 126.026 1281.63 123.94C1282.37 121.855 1282.75 119.537 1282.75 116.971V86.0967C1282.75 84.0936 1283.02 82.5702 1283.55 81.5107C1284.08 80.4516 1285.25 79.922 1287.06 79.9219ZM1109.26 79.875C1110.01 79.875 1110.74 79.9251 1111.45 80.0244C1112.16 80.1238 1112.84 80.4382 1113.5 81.001C1114.16 81.5638 1114.79 82.4079 1115.41 83.5664C1116.02 84.7087 1116.65 86.3478 1117.26 88.4502L1124.33 113.018C1125.07 115.567 1125.95 117.338 1126.98 118.364C1128 119.39 1129.23 119.903 1130.65 119.903C1131.96 119.903 1133.19 119.291 1134.33 118.083C1135.47 116.875 1136.41 115.054 1137.16 112.637L1145.16 85.835L1145.22 85.8516C1145.97 83.4346 1146.91 81.8613 1148.05 81.1494C1149.19 80.4376 1150.67 80.0733 1152.47 80.0732C1155.09 80.0732 1156.38 80.9512 1156.38 82.6729C1156.38 83.7321 1156.26 84.5928 1156.01 85.2715L1139.26 133.644C1138.88 134.703 1138.5 135.598 1138.1 136.343C1137.71 137.088 1137.18 137.716 1136.51 138.246C1135.87 138.776 1135.02 139.157 1134 139.405C1132.97 139.654 1131.68 139.786 1130.14 139.786C1128.9 139.786 1127.84 139.703 1126.98 139.554C1126.12 139.405 1125.36 139.09 1124.69 138.627C1124.03 138.163 1123.5 137.534 1123.05 136.723C1122.62 135.912 1122.18 134.902 1121.75 133.66L1105.74 86.2158C1105.49 85.5373 1105.34 84.9576 1105.28 84.4941C1105.21 84.0308 1105.18 83.5835 1105.18 83.1367C1105.18 82.3255 1105.31 81.7126 1105.59 81.2822C1105.87 80.8518 1106.24 80.5209 1106.67 80.3057C1107.1 80.0905 1107.54 79.9745 1108.01 79.9248C1108.47 79.8917 1108.88 79.875 1109.26 79.875ZM1169.8 80.1875C1170.68 80.1875 1171.38 80.2376 1171.89 80.3369C1172.4 80.4362 1172.82 80.8 1173.1 81.4287C1173.4 82.0578 1173.58 83.0517 1173.64 84.4092C1173.71 85.7666 1173.76 87.6868 1173.76 90.1367V133.924H1173.74C1173.74 135.844 1173.58 137.301 1173.25 138.244C1172.92 139.204 1171.91 139.685 1170.22 139.685C1169.19 139.685 1167.7 139.602 1167.12 139.437C1166.54 139.271 1166.11 138.856 1165.86 138.194C1165.62 137.532 1165.47 136.539 1165.43 135.215C1165.4 133.891 1165.37 132.069 1165.37 129.735V85.9482C1165.37 84.9552 1165.38 84.0945 1165.43 83.3662C1165.47 82.6378 1165.6 82.0416 1165.81 81.5781C1166.03 81.1148 1166.39 80.7669 1166.92 80.5352C1167.44 80.3034 1168.84 80.1875 1169.8 80.1875ZM1325.73 79.8125C1326.42 79.8125 1327.25 80.0279 1328.25 80.5576C1328.86 80.8391 1329.84 82.0642 1330.66 84.332L1349.82 136.578V136.611C1350.02 137.058 1350.1 137.472 1350.1 137.886C1350.1 138.283 1350.03 138.498 1349.97 138.598L1349.67 138.812C1348.91 139.061 1348.26 139.177 1347.73 139.177C1346.03 139.193 1344.93 138.862 1344.49 138.498C1343.81 137.985 1343.15 137.24 1342.5 136.214C1341.76 135.038 1340.88 133.846 1339.85 132.654C1338.81 131.446 1337.86 130.585 1336.89 130.056H1336.84C1335.76 129.443 1334.47 129.029 1332.93 128.748C1331.37 128.467 1329.74 128.334 1328.01 128.334H1318.83C1316.14 128.334 1313.23 127.87 1310.98 129.013C1308.76 130.138 1307.49 132.638 1306.44 134.476C1306 135.204 1305.57 135.883 1305.15 136.545C1304.8 137.124 1304.39 137.605 1303.94 138.019C1303.53 138.383 1303.05 138.68 1302.42 138.896C1301.84 139.094 1301.05 139.21 1300.07 139.21C1299.41 139.21 1298.78 139.077 1298.12 138.812L1297.85 138.581C1297.79 138.465 1297.7 138.217 1297.7 137.803C1297.7 137.768 1297.75 137.355 1297.9 136.776C1298.05 136.247 1298.38 135.237 1298.88 133.83C1299.39 132.406 1300.09 130.469 1300.95 127.986C1301.81 125.52 1302.93 122.341 1304.34 118.451C1305.73 114.561 1307.45 109.859 1309.46 104.313C1311.48 98.7677 1313.84 92.1785 1316.59 84.5303C1317.2 82.8087 1317.97 81.6004 1318.74 80.8721V80.8555C1319.54 80.1272 1320.32 79.8125 1321.33 79.8125H1325.73ZM1363.14 78.7188C1363.99 78.7188 1364.65 78.8344 1365.1 78.9834C1365.54 79.1489 1365.79 79.3317 1365.99 79.5469C1366.45 80.0601 1366.82 80.9373 1366.82 82.5098V82.5264L1366.72 107.275C1366.72 111.861 1366.75 115.42 1366.82 117.986C1366.87 120.535 1366.97 122.505 1367.1 123.945C1367.25 125.402 1367.41 126.479 1367.89 127.505C1368.21 128.15 1368.57 128.779 1368.99 129.408H1369V129.441C1369.63 130.368 1370.29 131.163 1371.05 131.809C1372.01 132.62 1373.17 133.084 1374.53 133.415C1375.89 133.746 1377.58 133.945 1379.71 134.077C1381.83 134.21 1384.63 134.259 1388.16 134.259C1389.68 134.259 1390.74 134.557 1391.37 134.954L1391.85 135.435C1391.93 135.584 1392 135.799 1392 136.18C1391.96 137.438 1391.68 137.902 1391.25 138.282C1390.82 138.663 1389.84 139.026 1388.14 139.026H1362.94C1361.5 139.01 1360.82 138.663 1360.43 138.249C1360.13 137.984 1359.63 136.825 1359.65 134.673V82.5098C1359.65 80.8049 1360.06 79.9443 1360.48 79.5469C1360.96 79.0668 1361.7 78.7188 1363.14 78.7188ZM850.65 80.2969C852.62 80.2969 854.293 80.562 855.65 81.0918C857.008 81.6215 858.15 82.3003 859.044 83.1279C859.954 83.9556 860.666 84.8829 861.195 85.8926C861.725 86.9024 862.205 87.9121 862.636 88.9385L878.959 131.169L878.976 131.152C879.191 131.632 879.29 132.212 879.29 132.907C879.29 133.702 879.075 134.48 878.645 135.225C878.214 135.969 877.651 136.632 876.923 137.178C876.194 137.741 875.383 138.172 874.439 138.503C873.512 138.817 872.502 138.982 871.442 138.982C870.052 138.982 868.728 138.751 867.437 138.304C866.145 137.857 864.821 136.896 863.431 135.473C862.255 134.198 861.278 133.205 860.517 132.51C859.739 131.815 858.977 131.301 858.232 130.986C857.487 130.672 856.659 130.473 855.749 130.424C854.839 130.374 853.663 130.341 852.223 130.341C849.988 130.341 848.333 130.424 847.273 130.573C846.197 130.739 845.304 130.971 844.559 131.302C843.433 131.782 842.754 132.162 842.489 132.427L839.129 135.787C836.679 137.923 834.113 138.982 831.447 138.982C829.097 138.982 827.309 138.469 826.084 137.427C824.859 136.384 824.246 134.943 824.246 133.072C824.246 131.798 824.312 130.887 824.444 130.357C824.577 129.828 824.726 129.347 824.892 128.917L840.254 88.127C842.224 82.8958 845.701 80.2969 850.65 80.2969ZM1071.11 89.583C1065.93 89.583 1061.89 91.305 1058.79 94.748C1055.51 98.4894 1053.87 103.589 1053.87 110.078C1053.87 116.286 1055.43 121.335 1058.52 125.242C1061.62 129.149 1065.59 131.103 1070.41 131.103C1075.92 131.102 1080.29 129.215 1083.51 125.457C1086.72 121.699 1088.34 116.633 1088.34 110.26C1088.34 104.284 1086.75 99.3502 1083.6 95.4434C1080.44 91.5368 1076.29 89.5831 1071.11 89.583ZM975.421 94.1738C973.716 94.1738 972.275 94.3388 971.116 94.6699C969.957 95.001 969.014 95.6306 968.302 96.541C967.59 97.4515 967.077 98.7265 966.763 100.349C966.465 101.971 966.315 104.056 966.315 106.589V116.142C966.315 119.403 967.028 121.803 968.468 123.376C969.908 124.949 971.663 125.743 973.766 125.743C976.133 125.743 978.202 125.296 979.974 124.386C981.745 123.475 983.202 122.3 984.36 120.876C985.519 119.436 986.38 117.813 986.959 115.992C987.538 114.171 987.82 112.35 987.82 110.529C987.82 107.549 987.389 105.033 986.545 102.964C985.684 100.895 984.641 99.2062 983.399 97.8818C982.158 96.5575 980.817 95.6136 979.394 95.0342C977.953 94.4548 976.629 94.1739 975.421 94.1738ZM1323.98 92.3281C1322.02 92.3281 1320.35 92.7745 1318.91 94.165C1317.5 95.506 1316.36 98.4861 1315.71 100.456V100.489L1312.68 110.488C1312.67 110.538 1311.46 115.674 1311.46 116.613C1311.43 119.444 1311.97 119.295 1315.37 120.222C1317.54 120.818 1320.32 120.934 1323.74 120.934C1327.24 120.934 1329.62 120.586 1332.35 120.172C1334.83 119.791 1336.44 118.401 1336.42 115.637C1336.42 114.461 1334.97 109.561 1334.97 109.561L1331.9 100.406C1331.14 98.3866 1330.07 95.5061 1328.88 94.2148H1328.89C1327.62 92.8245 1325.91 92.3282 1323.98 92.3281ZM851.279 107.811C850.485 107.811 849.806 108.274 849.243 109.218C848.68 110.161 848.399 111.171 848.399 112.297L848.416 112.28C848.416 113.24 848.664 114.068 849.177 114.764C849.69 115.459 850.336 115.807 851.131 115.807C852.091 115.807 852.869 115.525 853.448 114.962C854.028 114.399 854.325 113.554 854.325 112.445C854.325 111.336 854.011 110.277 853.398 109.284C852.786 108.291 852.074 107.811 851.279 107.811ZM92.374 48.5029C82.1765 48.5029 74.7103 50.3414 70.0088 53.9834C65.291 57.6419 62.9404 63.1216 62.9404 70.4385H62.9238C62.9239 77.9374 65.4236 83.5654 70.4395 87.3232C75.4389 91.0811 81.4152 92.9521 88.335 92.9521C99.3105 92.9521 107.439 90.7335 112.72 86.3135C118.017 81.8935 120.666 76.7784 120.666 71.0176C120.666 64.2799 118.166 58.8496 113.167 54.7109C108.151 50.5723 101.231 48.5029 92.374 48.5029ZM929.631 6.9375C931.766 6.93752 933.472 7.21846 934.779 7.79785C936.087 8.37725 937.312 9.22206 938.471 10.3809H938.504C939.149 11.043 940.077 12.2513 941.252 14.0225C942.427 15.7938 943.586 17.7974 944.729 20.0322C946.632 23.6245 948.403 26.406 950.042 28.376C951.681 30.3458 952.956 31.3221 953.883 31.3223C954.528 31.3223 955.158 30.7595 955.771 29.6504C956.366 28.5413 956.664 26.8528 956.664 24.6182C956.664 21.6716 956.698 19.1218 956.78 16.9697C956.863 14.8177 957.211 13.1126 957.807 11.8545C959.164 8.90779 961.349 7.43457 964.346 7.43457C965.869 7.43459 967.159 7.66645 968.186 8.12988C969.228 8.59335 970.057 9.40388 970.686 10.5459C971.315 11.6881 971.745 13.2282 971.993 15.165C972.241 17.1019 972.357 19.5357 972.357 22.4824V55.21C972.357 62.9575 969.411 66.832 963.518 66.832C961.117 66.832 959.164 66.4342 957.657 65.6396C956.151 64.8451 954.843 63.8852 953.685 62.7266C953.403 62.5114 952.989 61.9319 952.409 61.0049C951.83 60.0778 951.184 59.0014 950.439 57.7764C949.695 56.5514 948.933 55.2599 948.155 53.9355C947.361 52.5947 946.632 51.3865 945.986 50.2939C944.728 48.324 943.52 46.5855 942.345 45.0625C941.169 43.5395 940.209 42.7617 939.447 42.7617C937.378 42.7619 936.335 45.1122 936.335 49.7969C936.335 52.0317 936.302 53.8694 936.203 55.3262C936.12 56.7664 936.021 57.942 935.872 58.8525C935.74 59.7464 935.574 60.4752 935.375 61.0215C935.176 61.5676 935.011 62.0807 934.846 62.5771C934.299 63.9344 933.488 64.9276 932.429 65.5566C931.369 66.1857 930.094 66.5009 928.621 66.501C926.717 66.501 925.227 66.1691 924.168 65.5234C923.109 64.8779 922.314 63.9015 921.801 62.627C921.288 61.3523 920.956 59.7956 920.823 57.958C920.691 56.1371 920.625 54.0183 920.625 51.6182V18.5586C920.625 14.6355 921.271 11.7221 922.595 9.80176C923.903 7.89799 926.254 6.9375 929.631 6.9375ZM851.412 6.10938C853.332 6.10938 854.987 6.19187 856.345 6.34082C857.702 6.50636 858.911 6.70486 859.987 6.96973C861.063 7.23457 862.023 7.55001 862.884 7.94727C863.745 8.34457 864.623 8.77476 865.5 9.23828C866.642 9.86728 867.751 10.612 868.827 11.4727C869.903 12.3335 870.83 13.2115 871.642 14.0889C872.453 14.9661 873.098 15.8434 873.562 16.7041C874.025 17.5649 874.257 18.3104 874.257 18.9395C874.257 19.9822 874.042 20.9096 873.628 21.7207C873.214 22.5316 872.668 23.2265 871.989 23.8389C871.311 24.4348 870.533 24.8984 869.639 25.2129C868.745 25.5274 867.834 25.6933 866.907 25.6934C865.5 25.6934 864.242 25.379 863.149 24.75L858.762 22.084C857.868 21.5048 856.891 21.1077 855.782 20.876C854.69 20.6442 853.746 20.5283 852.968 20.5283C851.561 20.5284 850.137 20.8102 848.697 21.3564C847.257 21.9027 845.965 22.7965 844.79 24.0215C843.615 25.2465 842.672 26.8524 841.927 28.8389C841.182 30.8254 840.834 33.2258 840.834 36.04C840.834 38.49 841.165 40.6921 841.844 42.6455C842.522 44.5987 843.4 46.2706 844.459 47.6445C845.535 49.0185 846.76 50.0949 848.134 50.8564C849.508 51.6179 850.915 51.9814 852.322 51.9814L852.355 51.9326C853.614 51.9326 854.657 51.8491 855.484 51.667C856.312 51.4849 857.09 51.2373 857.785 50.9229C858.48 50.6084 859.176 50.2439 859.854 49.8301C860.533 49.4163 861.311 48.9693 862.205 48.5059C863.397 47.8768 864.374 47.5124 865.103 47.4131C865.831 47.3138 866.493 47.2471 867.056 47.2471C868.049 47.2471 868.993 47.4131 869.92 47.7607C870.83 48.1084 871.608 48.5387 872.271 49.085C872.916 49.6312 873.446 50.2598 873.827 50.9551C874.208 51.6504 874.423 52.3958 874.423 53.1904C874.423 54.6969 873.81 56.2368 872.585 57.7598C871.36 59.2992 869.771 60.7059 867.817 61.9805C865.864 63.2552 863.679 64.2982 861.278 65.1094C858.878 65.9205 856.478 66.3184 854.077 66.3184C849.756 66.3184 845.767 65.5562 842.142 64.0166C838.516 62.4771 835.42 60.3751 832.838 57.6768C830.255 54.9949 828.253 51.8492 826.812 48.2568C825.372 44.6645 824.66 40.7742 824.66 36.6025C824.66 27.7295 827.01 20.644 831.695 15.3301C834.361 12.2509 837.407 9.94972 840.851 8.41016C844.294 6.87071 847.803 6.10938 851.412 6.10938ZM896.889 6.125C898.809 6.12503 900.447 6.35687 901.788 6.82031C903.146 7.28384 904.239 8.0784 905.1 9.2041C905.96 10.3298 906.572 11.8366 906.937 13.7568C907.301 15.6771 907.483 18.0775 907.483 20.9248V54.7451L907.517 54.7783C907.517 62.4761 904.288 66.3173 897.849 66.3174C895.713 66.3174 894.025 65.9695 892.783 65.2578C891.542 64.5625 890.564 63.5853 889.853 62.3271C889.157 61.0856 888.694 59.6122 888.479 57.9238C888.28 56.2353 888.164 54.3976 888.164 52.4277L888.313 17.8125C888.313 14.3857 889.008 11.571 890.415 9.40234C891.822 7.21724 893.975 6.125 896.889 6.125ZM1249.25 7C1252.74 7 1254.5 8.57259 1254.5 11.7178C1254.5 14.8631 1252.74 16.2705 1249.22 16.2705H1231.27C1229.27 16.2705 1227.63 16.85 1226.34 18.0254C1225.05 19.2007 1224.4 20.8892 1224.4 23.0908C1224.4 27.8751 1226.69 30.2588 1231.27 30.2588H1247.3C1250.82 30.2588 1252.58 31.8322 1252.58 34.9775C1252.58 38.1226 1250.82 39.5293 1247.33 39.5293H1231.4C1226.74 39.5294 1224.4 42.2117 1224.4 47.5752V50.0254C1224.4 54.6936 1226.9 57.0273 1231.92 57.0273H1251.87C1255.36 57.0274 1257.11 58.6008 1257.11 61.7461C1257.11 64.8911 1254.89 66.2978 1250.46 66.2979H1217.03C1213.43 66.2978 1211.62 64.2617 1211.62 60.1729V12.6777C1211.62 8.88715 1213.31 7.00009 1216.69 7H1249.25ZM1019.24 7.03906C1020.37 7.03907 1021.43 7.205 1022.44 7.51953C1023.45 7.83406 1024.32 8.28098 1025.07 8.84375C1025.81 9.40659 1026.41 10.0687 1026.87 10.8467C1027.34 11.6247 1027.55 12.4361 1027.55 13.2803C1027.55 15.0846 1027.15 16.4921 1026.34 17.4854C1025.55 18.4784 1024.42 19.2065 1022.98 19.6865C1021.54 20.1666 1019.8 20.4485 1017.78 20.5312C1015.76 20.614 1013.51 20.6465 1011.06 20.6465C1008.4 20.6465 1006.39 20.9618 1005.07 21.6074C1003.73 22.253 1003.07 23.097 1003.07 24.1729C1003.07 25.133 1003.36 25.8785 1003.94 26.4082C1004.52 26.9377 1005.27 27.3347 1006.15 27.5664C1007.02 27.7982 1007.98 27.9473 1009.03 27.9639C1010.07 27.997 1011.03 27.9971 1011.94 27.9971C1013.55 27.9971 1015.17 28.0305 1016.82 28.1133C1018.48 28.1961 1019.95 28.4603 1021.26 28.9072C1022.57 29.3542 1023.64 30.0662 1024.5 31.0264C1025.35 31.9864 1025.78 33.3274 1025.78 35.0322C1025.78 36.7371 1025.35 37.9459 1024.5 38.8232C1023.64 39.7006 1022.58 40.3468 1021.31 40.7441C1020.03 41.1414 1018.61 41.3899 1017.07 41.4727C1015.53 41.5554 1014.06 41.5879 1012.67 41.5879C1010.43 41.5879 1008.6 41.7038 1007.16 41.9521C1005.72 42.1839 1004.59 42.5483 1003.79 43.0283C1003 43.5083 1002.44 44.0879 1002.12 44.75C1001.81 45.4122 1001.64 46.1743 1001.64 47.0352C1001.64 48.3757 1001.91 49.4016 1002.44 50.1465C1002.97 50.8914 1003.86 51.4709 1005.12 51.8682C1006.38 52.2655 1008.03 52.514 1010.09 52.6299C1012.14 52.7292 1014.66 52.7959 1017.65 52.7959C1017.92 52.7959 1018.18 52.7957 1018.45 52.7627C1018.71 52.7296 1019.09 52.7295 1019.57 52.7295C1020.85 52.7295 1022.14 52.8286 1023.45 53.0107C1024.75 53.1928 1025.94 53.5406 1027 54.0537C1028.06 54.5669 1028.94 55.229 1029.6 56.0566C1030.27 56.8843 1030.6 57.9275 1030.6 59.2188C1030.6 60.8742 1030.1 62.1657 1029.12 63.0928C1028.13 64.0197 1026.95 64.7319 1025.56 65.2119C1024.17 65.692 1022.72 65.9895 1021.16 66.0889C1019.62 66.1882 1018.28 66.2549 1017.15 66.2549H1000.83L1000.85 66.2383C997.918 66.2383 995.418 66.1715 993.332 66.0391C991.246 65.9066 989.524 65.5098 988.167 64.8311C986.81 64.1689 985.8 63.1258 985.171 61.7188C984.525 60.3116 984.211 58.3415 984.211 55.8418V16.0117C984.211 13.4459 985.006 11.3271 986.611 9.60547C988.217 7.8838 990.287 7.03906 992.853 7.03906H1019.24ZM1144.87 6.73438C1147.79 6.73443 1149.84 8.30703 1151 11.4688L1169.9 61.5459C1170.13 62.0756 1170.25 62.606 1170.25 63.1191C1170.25 65.1055 1168.79 66.0986 1165.86 66.0986H1161.66V66.0654C1159.62 66.0654 1157.75 64.543 1156.06 61.5137C1154.77 59.1795 1153.43 57.722 1152.04 57.1426C1151 56.6791 1148.3 56.4473 1143.99 56.4473H1137.34C1134.77 56.4473 1132.99 56.7458 1132.01 57.3252C1130.83 57.9709 1129.48 59.5435 1127.89 62.0596C1126.96 63.5825 1126.13 64.5923 1125.44 65.1221C1124.51 65.7676 1123.15 66.082 1121.41 66.082H1117.92C1115.47 66.082 1114.25 65.0557 1114.25 63.0195C1114.25 62.2582 1114.41 61.4141 1114.78 60.4873L1132.8 11.8164C1134.03 8.43943 1136.02 6.73438 1138.75 6.73438H1144.87ZM1052.33 7.03906C1053.16 7.03907 1054.05 7.10499 1055.01 7.27051C1055.82 7.4195 1056.64 7.70156 1057.46 8.18164C1058.21 8.61206 1058.95 9.27421 1059.67 10.2178C1060.3 11.062 1060.89 12.3204 1061.34 13.9922H1061.4L1063.85 23.5439C1064.9 27.6164 1065.77 30.6954 1066.52 32.7979C1066.92 33.9401 1067.4 34.9006 1068.09 35.6621C1068.75 36.4235 1069.8 36.9697 1070.89 36.9697C1071.67 36.9697 1072.43 36.6716 1073.01 36.2246C1073.59 35.7777 1074.04 35.2148 1074.43 34.5527C1075.16 33.3278 1075.81 31.755 1076.4 29.7852C1077 27.8483 1077.61 25.5637 1078.24 22.8818C1078.87 20.2331 1079.6 17.3191 1080.41 14.1406C1081 11.8399 1082.01 10.1516 1083.45 8.87695C1084.76 7.7347 1086.77 7.03907 1089.75 7.03906H1094.5C1096.5 7.03906 1097.92 7.38627 1098.8 7.91602C1099.81 8.52853 1100.52 9.27409 1101.04 10.1846C1101.56 11.1778 1101.91 12.3203 1102.06 13.6611C1102.21 15.1344 1102.29 16.6412 1102.29 18.1807V55.9746C1102.31 59.6659 1101.61 62.2318 1100.56 63.7217C1099.48 65.1785 1098.14 65.8741 1095.79 65.9072C1093.97 65.9072 1092.79 65.4262 1091.88 64.582C1090.94 63.6881 1090.11 62.2151 1089.56 60.0137L1089.53 59.9639V59.9141C1089.45 59.6161 1089.3 58.8544 1089.2 57.7783C1089.08 56.6196 1088.95 55.4604 1088.79 54.2852C1088.6 53.0603 1088.35 51.9511 1088.01 50.9414C1087.79 50.3456 1087.54 49.8159 1087.08 49.3193C1086.63 48.8227 1085.87 48.458 1085.13 48.458C1084.35 48.4416 1083.57 48.8227 1083.07 49.3027C1082.46 49.9152 1082.15 50.5446 1081.77 51.4219C1081.43 52.2164 1081 53.3089 1080.47 54.6826C1079.96 56.0401 1079.3 57.8118 1078.47 59.9805C1077.64 62.1655 1076.58 63.6717 1075.36 64.6318C1074.13 65.592 1072.73 66.0723 1070.87 66.0723C1069.13 66.0557 1067.69 65.5761 1066.32 64.5332C1064.98 63.5068 1063.9 61.9996 1063.11 59.8145C1061.57 55.6927 1060.44 52.7959 1059.67 51.0742C1059.25 50.1637 1058.85 49.4514 1058.37 48.8389C1058.13 48.5245 1057.86 48.2434 1057.5 48.0117C1057.13 47.78 1056.65 47.5811 1056.11 47.5811H1055.68L1054.52 48.2266L1054.25 48.376L1054.05 48.6074C1053.51 49.2695 1053.28 49.9646 1053.01 50.8418C1052.75 51.7357 1052.55 52.8783 1052.35 54.3184C1052.15 55.7751 1051.97 57.5797 1051.8 59.7646C1051.72 61.0061 1051.44 61.9502 1051.04 62.6455C1050.58 63.4567 1050.06 64.0696 1049.52 64.5166C1048.92 64.9965 1048.31 65.3278 1047.66 65.543C1046.94 65.7912 1046.36 65.8906 1045.94 65.8906C1044.34 65.8906 1043.24 65.5759 1042.55 65.1289C1041.75 64.6323 1041.19 63.9698 1040.76 63.0098C1040.31 61.9834 1039.98 60.6917 1039.83 59.0859C1039.68 57.4141 1039.6 55.5104 1039.6 53.3916V17.6504C1039.6 13.727 1040.28 10.9456 1041.34 9.33984C1041.82 8.62812 1042.47 8.09839 1043.48 7.68457C1044.47 7.28732 1045.84 7.03906 1047.58 7.03906H1052.33ZM1142.06 24.7461C1140.25 24.7461 1138.96 26.3186 1138.04 29.4805L1134.71 40.8535C1134.59 41.2673 1134.53 41.6978 1134.53 42.1611C1134.53 43.5018 1135.04 44.6936 1136.06 45.7529C1137.09 46.7958 1138.27 47.3261 1139.61 47.3262H1144.16C1145.73 47.3262 1147.04 46.8125 1148.1 45.8027C1149.16 44.7764 1149.67 43.5349 1149.67 42.0781C1149.67 41.5485 1149.59 41.0354 1149.41 40.5059L1146.26 29.8281C1145.27 26.451 1143.86 24.7461 1142.06 24.7461Z" fill="#E6332A"/>
</svg>
