<svg width="64" height="64" viewBox="0 0 64 64" fill="none" xmlns="http://www.w3.org/2000/svg">
<path d="M32 0.650391C49.314 0.650391 63.3504 14.6861 63.3506 32C63.3506 49.3141 49.3141 63.3506 32 63.3506C14.6861 63.3504 0.650391 49.314 0.650391 32C0.650607 14.6862 14.6862 0.650607 32 0.650391Z" stroke="white" stroke-width="1.3"/>
<path d="M36.0017 25.3359H34.0016C33.1175 25.3359 32.2696 25.6871 31.6444 26.3123C31.0193 26.9374 30.6681 27.7853 30.6681 28.6694V30.6695H28.668V33.3363H30.6681V38.6699H33.3349V33.3363H35.335L36.0017 30.6695H33.3349V28.6694C33.3349 28.4926 33.4051 28.323 33.5301 28.198C33.6552 28.073 33.8247 28.0027 34.0016 28.0027H36.0017V25.3359Z" stroke="white" stroke-width="1.3334" stroke-linecap="round" stroke-linejoin="round"/>
</svg>
